<?xml version="1.0" encoding="iso-8859-1"?>
<!-- Generator: Adobe Illustrator 19.0.0, SVG Export Plug-In . SVG Version: 6.00 Build 0)  -->
<svg version="1.1" id="Capa_1" xmlns="http://www.w3.org/2000/svg" xmlns:xlink="http://www.w3.org/1999/xlink" x="0px" y="0px"
	 viewBox="0 0 512 512" style="enable-background:new 0 0 512 512;" xml:space="preserve">
<g>
	<g>
		<path d="M362.374,287.035l-16.402-27.505C355.187,251.284,361,239.31,361,226c0-12.111-4.818-23.111-12.626-31.208l14.425-28.851
			C378.506,165.007,391,151.938,391,136c0-16.542-13.458-30-30-30s-30,13.458-30,30c0,6.099,1.834,11.774,4.972,16.515l-14.42,28.84
			C319.731,181.129,317.881,181,316,181c-19.555,0-36.228,12.542-42.42,30h-36.616c-5.195-8.958-14.884-15-25.964-15
			c-16.542,0-30,13.458-30,30s13.458,30,30,30c11.08,0,20.769-6.042,25.964-15h36.616c6.192,17.458,22.865,30,42.42,30
			c0.622,0,1.239-0.022,1.855-0.047l17.854,29.94C332.733,305.551,331,311.075,331,317c0,16.542,13.458,30,30,30s30-13.458,30-30
			C391,300.919,378.28,287.756,362.374,287.035z M316,241c-8.271,0-15-6.729-15-15s6.729-15,15-15s15,6.729,15,15
			S324.271,241,316,241z"/>
	</g>
</g>
<g>
	<g>
		<path d="M476.617,387.593c2.849-2.852,4.383-6.75,4.383-10.593V45c0-24.813-20.187-45-45-45c-11.537,0-289.266,0-300,0
			C78.102,0,31,47.103,31,105v332c0,41.355,33.645,75,75,75h360c6.067,0,11.536-3.655,13.858-9.26
			c2.321-5.605,1.038-12.057-3.252-16.347c-27.235-27.235-27.235-71.549-0.002-98.785
			C476.609,387.603,476.613,387.598,476.617,387.593z M211,30h60v77.972l-21.68-14.453C246.801,91.84,243.9,91,241,91
			c-2.9,0-5.801,0.84-8.32,2.519L211,107.972V30z M61,105c0-36.219,25.81-66.524,60-73.493V362h-15
			c-16.871,0-32.456,5.603-45,15.041V105z M106,452h321.326c1.558,10.337,4.729,20.477,9.527,30H106c-24.813,0-45-20.187-45-45
			s20.187-45.1,45-45.1c4.55,0,327.932,0,330.853,0c-4.798,9.523-7.969,19.763-9.527,30.1H106c-8.284,0-15,6.716-15,15
			S97.716,452,106,452z M451,362H151V30h30v106c0,5.532,3.045,10.615,7.922,13.225c4.877,2.61,10.796,2.324,15.398-0.744
			L241,124.028l36.68,24.453c4.599,3.067,10.519,3.356,15.398,0.744c4.877-2.61,7.922-7.693,7.922-13.225V30h135
			c8.271,0,15,6.729,15,15V362z"/>
	</g>
</g>
<g>
</g>
<g>
</g>
<g>
</g>
<g>
</g>
<g>
</g>
<g>
</g>
<g>
</g>
<g>
</g>
<g>
</g>
<g>
</g>
<g>
</g>
<g>
</g>
<g>
</g>
<g>
</g>
<g>
</g>
</svg>
