<?xml version="1.0" encoding="iso-8859-1"?>
<!-- Generator: Adobe Illustrator 19.0.0, SVG Export Plug-In . SVG Version: 6.00 Build 0)  -->
<svg version="1.1" id="Capa_1" xmlns="http://www.w3.org/2000/svg" xmlns:xlink="http://www.w3.org/1999/xlink" x="0px" y="0px"
	 viewBox="0 0 512 512" style="enable-background:new 0 0 512 512;" xml:space="preserve">
<g>
	<g>
		<path d="M481.524,424.419c-4.38-57.825-38.703-107.411-87.455-133.275l53.537-53.537C450.42,234.793,452,230.978,452,227V91h15
			c8.284,0,15-6.716,15-15s-6.716-15-15-15h-45V30h15c8.284,0,15-6.716,15-15s-6.716-15-15-15c-12.802,0-107.206,0-120,0
			c-8.284,0-15,6.716-15,15s6.716,15,15,15h15v31h-45c-8.284,0-15,6.716-15,15s6.716,15,15,15h15v136
			c0,3.978,1.58,7.793,4.394,10.606l36.417,36.417C334.398,272.696,325.78,272,317,272h-31c-40.199,0-79.082,14.951-109.06,41.068
			C168.996,289.231,146.473,272,120,272c-33.084,0-60,26.916-60,60c0,3.417,0.302,6.812,0.9,10.17C24.768,358.98,0,394.938,0,437
			c0,8.284,6.716,15,15,15c2.065,0,443.16,0,452,0c8.271,0,15,6.729,15,15s-6.729,15-15,15H255c-8.284,0-15,6.716-15,15
			s6.716,15,15,15h212c24.813,0,45-20.187,45-45C512,447.269,499.229,430.475,481.524,424.419z M362,30h30v31h-30V30z M332,220.787
			V212h15c8.284,0,15-6.716,15-15s-6.716-15-15-15h-15v-30h15c8.284,0,15-6.716,15-15s-6.716-15-15-15h-15V91c14.8,0,80.875,0,90,0
			v129.787l-45,45L332,220.787z M242.735,422c6.474-17.282,23.675-30,43.265-30h31c8.284,0,15-6.716,15-15s-6.716-15-15-15h-31
			c-20.03,0-38.999,7.759-53.411,21.847c-10.863,10.619-18.081,23.818-21.052,38.153H31.504
			c5.413-26.597,25.038-48.387,52.199-56.485c8.797-2.623,13.203-12.482,9.273-20.788C91.002,340.55,90,336.269,90,332
			c0-16.542,13.458-30,30-30s30,13.458,30,30c0,3.141-0.617,6.403-1.887,9.975c-3.472,9.76,3.785,20.025,14.133,20.025
			c3.425,0,10.368,0.702,15.4-5.957C203.22,322.203,243.726,302,286,302h31c15.772,0,30.918,2.727,45,7.721V377
			c0,8.284,6.716,15,15,15s15-6.716,15-15v-52.189c32.228,21.616,54.678,56.731,59.172,97.189C433.34,422,250.937,422,242.735,422z"
			/>
	</g>
</g>
<g>
</g>
<g>
</g>
<g>
</g>
<g>
</g>
<g>
</g>
<g>
</g>
<g>
</g>
<g>
</g>
<g>
</g>
<g>
</g>
<g>
</g>
<g>
</g>
<g>
</g>
<g>
</g>
<g>
</g>
</svg>
