<?xml version="1.0" encoding="iso-8859-1"?>
<!-- Generator: Adobe Illustrator 19.0.0, SVG Export Plug-In . SVG Version: 6.00 Build 0)  -->
<svg version="1.1" id="Capa_1" xmlns="http://www.w3.org/2000/svg" xmlns:xlink="http://www.w3.org/1999/xlink" x="0px" y="0px"
	 viewBox="0 0 512 512" style="enable-background:new 0 0 512 512;" xml:space="preserve">
<g>
	<g>
		<path d="M286,331h-45v-15h15c24.813,0,45-20.187,45-45s-20.187-45-45-45s-45,20.187-45,45c0,8.284,6.716,15,15,15s15-6.716,15-15
			c0-8.271,6.729-15,15-15s15,6.729,15,15s-6.729,15-15,15h-15c-16.542,0-30,13.458-30,30v30c0,8.284,6.716,15,15,15h60
			c8.284,0,15-6.716,15-15S294.284,331,286,331z"/>
	</g>
</g>
<g>
	<g>
		<path d="M166,226c-8.284,0-15,6.716-15,15v38h-30v-38c0-8.284-6.716-15-15-15s-15,6.716-15,15v105c0,8.284,6.716,15,15,15
			s15-6.716,15-15v-37h30v37c0,8.284,6.716,15,15,15s15-6.716,15-15V241C181,232.716,174.284,226,166,226z"/>
	</g>
</g>
<g>
	<g>
		<path d="M376,226c-24.813,0-45,20.187-45,45v45c0,24.813,20.186,45,45,45c24.813,0,45-20.187,45-45v-45
			C421,246.187,400.813,226,376,226z M391,316c0,8.271-6.729,15-15,15s-15-6.729-15-15v-45c0-8.271,6.729-15,15-15s15,6.729,15,15
			V316z"/>
	</g>
</g>
<g>
	<g>
		<path d="M397.371,110.951L265.48,3.376c-5.518-4.501-13.443-4.501-18.961,0L114.682,110.907C61.501,153.88,31,217.698,31,286
			c0,124.616,100.934,226,225,226c124.065,0,225-101.383,225-226C481,217.699,450.499,153.88,397.371,110.951z M256,482
			c-107.523,0-195-87.926-195-196c0-59.196,26.438-114.509,72.59-151.802L256,34.357l122.463,99.885
			C424.561,171.491,451,226.804,451,286C451,394.075,363.523,482,256,482z"/>
	</g>
</g>
<g>
</g>
<g>
</g>
<g>
</g>
<g>
</g>
<g>
</g>
<g>
</g>
<g>
</g>
<g>
</g>
<g>
</g>
<g>
</g>
<g>
</g>
<g>
</g>
<g>
</g>
<g>
</g>
<g>
</g>
</svg>
