<?xml version="1.0" encoding="iso-8859-1"?>
<!-- Generator: Adobe Illustrator 19.0.0, SVG Export Plug-In . SVG Version: 6.00 Build 0)  -->
<svg version="1.1" id="Capa_1" xmlns="http://www.w3.org/2000/svg" xmlns:xlink="http://www.w3.org/1999/xlink" x="0px" y="0px"
	 viewBox="0 0 512 512" style="enable-background:new 0 0 512 512;" xml:space="preserve">
<g>
	<g>
		<circle cx="437" cy="181" r="15"/>
	</g>
</g>
<g>
	<g>
		<circle cx="437" cy="241" r="15"/>
	</g>
</g>
<g>
	<g>
		<circle cx="437" cy="301" r="15"/>
	</g>
</g>
<g>
	<g>
		<path d="M437,46H75C33.645,46,0,79.645,0,121v270c0,41.355,33.645,75,75,75h362c41.355,0,75-33.645,75-75V121
			C512,79.645,478.355,46,437,46z M482,391c0,24.813-20.187,45-45,45H75c-24.813,0-45-20.187-45-45V121c0-24.813,20.187-45,45-45
			h362c24.813,0,45,20.187,45,45V391z"/>
	</g>
</g>
<g>
	<g>
		<path d="M377,106H75c-8.284,0-15,6.716-15,15v270c0,8.284,6.716,15,15,15h302c8.284,0,15-6.716,15-15V121
			C392,112.716,385.284,106,377,106z M362,376H90v-90h31c5.682,0,10.876-3.21,13.416-8.292l11.866-23.732l20.166,80.662
			c1.522,6.089,6.676,10.587,12.915,11.272c0.55,0.06,1.098,0.09,1.642,0.09c5.632,0,10.852-3.173,13.411-8.292L220.271,286H271
			c5.581,0,10.7-3.099,13.289-8.043l18.222-34.807l18.544,34.89c2.604,4.899,7.697,7.96,13.245,7.96H362V376z M362,256h-18.686
			l-27.658-52.04c-2.604-4.9-7.699-7.96-13.245-7.96c-0.016,0-0.031,0-0.047,0c-5.564,0.018-10.661,3.113-13.242,8.043L261.922,256
			H211c-5.682,0-10.876,3.21-13.416,8.292l-11.866,23.732l-20.166-80.662c-1.522-6.089-6.676-10.587-12.915-11.272
			c-6.246-0.682-12.246,2.589-15.053,8.203L111.729,256H90V136h272V256z"/>
	</g>
</g>
<g>
</g>
<g>
</g>
<g>
</g>
<g>
</g>
<g>
</g>
<g>
</g>
<g>
</g>
<g>
</g>
<g>
</g>
<g>
</g>
<g>
</g>
<g>
</g>
<g>
</g>
<g>
</g>
<g>
</g>
</svg>
