<?xml version="1.0" encoding="iso-8859-1"?>
<!-- Generator: Adobe Illustrator 19.0.0, SVG Export Plug-In . SVG Version: 6.00 Build 0)  -->
<svg version="1.1" id="Capa_1" xmlns="http://www.w3.org/2000/svg" xmlns:xlink="http://www.w3.org/1999/xlink" x="0px" y="0px"
	 viewBox="0 0 512 512" style="enable-background:new 0 0 512 512;" xml:space="preserve">
<g>
	<g>
		<path d="M436,332c-19.555,0-36.228,12.542-42.42,30H361v-15c0-24.813,20.187-45,45-45s45-20.187,45-45
			c0-16.509-8.937-30.971-22.227-38.801l25.567-42.612c14.178-23.629,14.465-52.178,0.769-76.367
			C441.722,75.574,417.808,61.353,391,61.016V15c0-8.284-6.716-15-15-15h-60c-8.284,0-15,6.716-15,15v46h-90V15
			c0-8.284-6.716-15-15-15h-60c-8.284,0-15,6.716-15,15v46.016c-26.808,0.337-50.721,14.558-64.109,38.205
			c-13.696,24.189-13.408,52.737,0.769,76.366l25.567,42.612C69.937,226.029,61,240.491,61,257c0,24.813,20.187,45,45,45
			s45,20.187,45,45v15h-32.58c-6.192-17.458-22.865-30-42.42-30c-24.813,0-45,20.187-45,45v60c0,24.813,20.187,45,45,45
			c19.555,0,36.228-12.542,42.42-30h42.725c16.882,35.443,53.053,60,94.855,60s77.973-24.557,94.855-60h42.725
			c6.192,17.458,22.865,30,42.42,30c24.813,0,45-20.187,45-45v-60C481,352.187,460.813,332,436,332z M91,437c0,8.271-6.729,15-15,15
			s-15-6.729-15-15v-60c0-8.271,6.729-15,15-15s15,6.729,15,15V437z M331,30h30v31h-30V30z M151,30h30v31h-30V30z M121,422v-30h30
			v15c0,5.093,0.372,10.099,1.076,15H121z M256,482c-41.355,0-75-33.645-75-75c0-41.355,33.645-75,75-75s75,33.645,75,75
			C331,448.355,297.355,482,256,482z M207.37,313.964l21.416-53.538C233.263,249.232,243.945,242,256,242
			s22.737,7.232,27.215,18.425l21.416,53.538C290.082,306.329,273.538,302,256,302C238.462,302,221.918,306.329,207.37,313.964z
			 M337.745,315.975l-26.677-66.691C302.009,226.635,280.394,212,256,212c-24.394,0-46.009,14.635-55.068,37.284l-26.677,66.691
			C162.429,290.063,136.293,272,106,272c-8.271,0-15-6.729-15-15s6.729-15,15-15c5.404,0,10.391-2.907,13.053-7.609
			c2.663-4.703,2.59-10.474-0.19-15.108l-35.479-59.13c-8.543-14.239-8.688-31.491-0.388-46.15C91.151,99.599,105.722,91,121.973,91
			c10.532,0,254.665,0,268.055,0c16.251,0,30.821,8.599,38.977,23.001c8.3,14.66,8.155,31.912-0.388,46.151l-35.479,59.13
			c-2.78,4.634-2.854,10.405-0.19,15.108c2.661,4.703,7.648,7.61,13.052,7.61c8.271,0,15,6.729,15,15s-6.729,15-15,15
			C375.707,272,349.571,290.063,337.745,315.975z M391,422h-31.076c0.704-4.901,1.076-9.907,1.076-15v-15h30V422z M451,437
			c0,8.271-6.729,15-15,15s-15-6.729-15-15v-60c0-8.271,6.729-15,15-15s15,6.729,15,15V437z"/>
	</g>
</g>
<g>
</g>
<g>
</g>
<g>
</g>
<g>
</g>
<g>
</g>
<g>
</g>
<g>
</g>
<g>
</g>
<g>
</g>
<g>
</g>
<g>
</g>
<g>
</g>
<g>
</g>
<g>
</g>
<g>
</g>
</svg>
