<?xml version="1.0" encoding="iso-8859-1"?>
<!-- Generator: Adobe Illustrator 19.0.0, SVG Export Plug-In . SVG Version: 6.00 Build 0)  -->
<svg version="1.1" id="Capa_1" xmlns="http://www.w3.org/2000/svg" xmlns:xlink="http://www.w3.org/1999/xlink" x="0px" y="0px"
	 viewBox="0 0 512 512" style="enable-background:new 0 0 512 512;" xml:space="preserve">
<g>
	<g>
		<path d="M436.007,330.993c-8.284,0-15.001,6.716-15.001,15.001v15.001h-32.581c-5.125-14.449-17.43-25.519-32.605-28.91
			l-48.294-96.587c13.977-7.644,23.477-22.488,23.477-39.51c0-24.814-20.188-45.002-45.002-45.002h-8.072
			c5.123-8.833,8.072-19.076,8.072-30.001c0-9.253-2.067-18.208-6.192-26.549L239.581,8.614c-0.005-0.01-0.011-0.02-0.016-0.03
			c-5.311-11.284-21.675-11.606-27.133,0c-0.005,0.01-0.011,0.02-0.016,0.03l-40.228,85.821c-4.121,8.334-6.192,17.29-6.192,26.549
			c0,10.925,2.949,21.168,8.072,30.001h-8.072c-24.814,0-45.002,20.188-45.002,45.002c0,17.022,9.5,31.865,23.477,39.51
			l-48.294,96.587c-20.107,4.493-35.185,22.469-35.185,43.911c0,20.903,14.327,38.522,33.675,43.556l27.081,82.145
			c2.027,6.149,7.771,10.304,14.247,10.304h180.007c6.475,0,12.219-4.154,14.247-10.304l27.081-82.145
			c14.482-3.768,26.141-14.588,31.095-28.555h32.581v15.001c0,8.284,6.716,15.001,15.001,15.001c8.284,0,15.001-6.716,15.001-15.001
			v-60.002C451.008,337.709,444.291,330.993,436.007,330.993z M321.733,330.993H241V240.99h35.73L321.733,330.993z M198.379,109.249
			c2.724-5.811,24.392-52.037,27.62-58.924c3.234,6.899,24.895,53.111,27.621,58.927c1.577,3.705,2.38,7.651,2.38,11.733
			c0,16.543-13.458,30.001-30.001,30.001s-30.001-13.458-30.001-30.001C195.998,116.904,196.801,112.959,198.379,109.249z
			 M165.997,180.987h120.005c8.271,0,15.001,6.729,15.001,15.001s-6.729,15.001-15.001,15.001H165.997
			c-8.271,0-15.001-6.729-15.001-15.001S157.725,180.987,165.997,180.987z M175.268,240.99h35.73v90.003h-80.732L175.268,240.99z
			 M305.154,481.999H146.845l-20.11-61.002h198.529L305.154,481.999z M346.004,390.995H105.994c-8.271,0-15.001-6.729-15.001-15.001
			c0-8.271,6.729-15.001,15.001-15.001h240.009c8.271,0,15.001,6.729,15.001,15.001
			C361.004,384.266,354.275,390.995,346.004,390.995z"/>
	</g>
</g>
<g>
</g>
<g>
</g>
<g>
</g>
<g>
</g>
<g>
</g>
<g>
</g>
<g>
</g>
<g>
</g>
<g>
</g>
<g>
</g>
<g>
</g>
<g>
</g>
<g>
</g>
<g>
</g>
<g>
</g>
</svg>
