<?xml version="1.0" encoding="iso-8859-1"?>
<!-- Generator: Adobe Illustrator 19.0.0, SVG Export Plug-In . SVG Version: 6.00 Build 0)  -->
<svg version="1.1" id="Capa_1" xmlns="http://www.w3.org/2000/svg" xmlns:xlink="http://www.w3.org/1999/xlink" x="0px" y="0px"
	 viewBox="0 0 512 512" style="enable-background:new 0 0 512 512;" xml:space="preserve">
<g>
	<g>
		<path d="M452,271c-20.854,0-39.25,10.701-50.007,26.894l-58.012-22.92C345.299,268.854,346,262.508,346,256
			c0-19.44-6.197-37.46-16.717-52.189l61.337-62.102c8.917,5.26,19.299,8.291,30.38,8.291c33.084,0,60-26.916,60-60
			s-26.916-60-60-60s-60,26.916-60,60c0,11.141,3.063,21.577,8.375,30.527l-61.325,62.09C293.346,172.157,275.379,166,256,166
			c-19.41,0-37.403,6.177-52.12,16.667l-92.213-92.213C116.953,81.52,120,71.111,120,60c0-33.084-26.916-60-60-60S0,26.916,0,60
			s26.916,60,60,60c11.111,0,21.52-3.047,30.453-8.333l92.213,92.213C172.177,218.597,166,236.591,166,256
			c0,1.779,0.058,3.545,0.16,5.299l-52.933,12.061C103.212,254.152,83.119,241,60,241c-33.084,0-60,26.916-60,60s26.916,60,60,60
			c32.549,0,59.109-26.058,59.959-58.405l52.934-12.061c11.716,28.091,37.274,49.015,68.106,54.209v49.156
			c-25.849,6.677-45,30.195-45,58.101c0,33.084,26.916,60,60,60s60-26.916,60-60c0-27.906-19.151-51.424-45-58.101v-49.156
			c26.143-4.405,48.495-20.115,61.832-41.917l59.371,23.457C392.081,327.841,392,329.411,392,331c0,33.084,26.916,60,60,60
			s60-26.916,60-60S485.084,271,452,271z M421,60c16.542,0,30,13.458,30,30s-13.458,30-30,30s-30-13.458-30-30S404.458,60,421,60z
			 M60,90c-16.542,0-30-13.458-30-30s13.458-30,30-30s30,13.458,30,30S76.542,90,60,90z M60,331c-16.542,0-30-13.458-30-30
			s13.458-30,30-30s30,13.458,30,30S76.542,331,60,331z M286,452c0,16.542-13.458,30-30,30s-30-13.458-30-30s13.458-30,30-30
			S286,435.458,286,452z M256,316c-33.084,0-60-26.916-60-60s26.916-60,60-60s60,26.916,60,60S289.084,316,256,316z M452,361
			c-16.542,0-30-13.458-30-30s13.458-30,30-30s30,13.458,30,30S468.542,361,452,361z"/>
	</g>
</g>
<g>
</g>
<g>
</g>
<g>
</g>
<g>
</g>
<g>
</g>
<g>
</g>
<g>
</g>
<g>
</g>
<g>
</g>
<g>
</g>
<g>
</g>
<g>
</g>
<g>
</g>
<g>
</g>
<g>
</g>
</svg>
