<?xml version="1.0" encoding="iso-8859-1"?>
<!-- Generator: Adobe Illustrator 19.0.0, SVG Export Plug-In . SVG Version: 6.00 Build 0)  -->
<svg version="1.1" id="Capa_1" xmlns="http://www.w3.org/2000/svg" xmlns:xlink="http://www.w3.org/1999/xlink" x="0px" y="0px"
	 viewBox="0 0 512 512" style="enable-background:new 0 0 512 512;" xml:space="preserve">
<g>
	<g>
		<path d="M347.005,0C256.026,0,182.01,74.017,182.01,164.995c0,40.1,14.386,76.9,38.259,105.524l-40.259,40.259L158.8,289.569
			c-5.857-5.858-15.355-5.858-21.212,0L17.595,409.561c-23.455,23.437-23.464,61.407-0.004,84.849
			c23.453,23.452,61.387,23.454,84.843-0.001L222.43,374.412c5.858-5.858,5.858-15.355,0-21.212l-21.209-21.209l40.259-40.259
			c28.624,23.874,65.424,38.259,105.525,38.259c90.978,0,164.995-74.017,164.995-164.995S437.983,0,347.005,0z M166.827,387.593
			l-21.209-21.209c-5.857-5.858-15.355-5.858-21.212,0c-5.858,5.858-5.858,15.355,0,21.212l21.209,21.209l-23.786,23.786
			l-21.209-21.209c-5.857-5.858-15.355-5.858-21.212,0c-5.858,5.858-5.858,15.355,0,21.212l21.209,21.209l-19.393,19.392
			c-11.727,11.726-30.684,11.735-42.423-0.004c-11.721-11.711-11.73-30.691,0.004-42.414l109.391-109.391l21.208,21.208l0.001,0.001
			l0.001,0.001l21.208,21.208L166.827,387.593z M347.005,299.991c-74.437,0-134.996-60.558-134.996-134.996
			c0-74.437,60.559-134.996,134.996-134.996s134.996,60.559,134.996,134.996S421.442,299.991,347.005,299.991z"/>
	</g>
</g>
<g>
	<g>
		<path d="M387.609,64.392c-5.857-5.857-15.355-5.857-21.212,0l-29.999,29.999c-5.858,5.858-5.858,15.355,0,21.212
			c5.858,5.858,15.355,5.858,21.212,0l29.999-29.999C393.467,79.747,393.467,70.25,387.609,64.392z"/>
	</g>
</g>
<g>
	<g>
		<path d="M297.612,124.391l-29.999-29.999c-5.857-5.857-15.355-5.857-21.212,0c-5.858,5.858-5.858,15.355,0,21.212l29.999,29.999
			c5.858,5.858,15.355,5.858,21.212,0C303.47,139.745,303.47,130.248,297.612,124.391z"/>
	</g>
</g>
<g>
	<g>
		<path d="M357.61,154.39c-5.857-5.857-15.355-5.857-21.212,0l-29.999,29.999c-5.858,5.858-5.858,15.355,0,21.212
			c5.858,5.858,15.355,5.858,21.212,0l29.999-29.999C363.468,169.744,363.468,160.248,357.61,154.39z"/>
	</g>
</g>
<g>
	<g>
		<path d="M437.002,119.997h-29.999c-8.284,0-15,6.716-15,15s6.715,15,15,15h29.999c8.284,0,15-6.716,15-15
			S445.286,119.997,437.002,119.997z"/>
	</g>
</g>
<g>
	<g>
		<path d="M417.609,184.389c-5.857-5.858-15.355-5.858-21.212,0l-29.999,29.999c-5.858,5.858-5.858,15.355,0,21.212
			c5.858,5.858,15.355,5.858,21.212,0l29.999-29.999C423.466,199.743,423.466,190.247,417.609,184.389z"/>
	</g>
</g>
<g>
	<g>
		<path d="M327.611,244.387l-29.999-29.999c-5.857-5.857-15.355-5.857-21.212,0c-5.858,5.858-5.858,15.355,0,21.212l29.999,29.999
			c5.858,5.858,15.355,5.858,21.212,0C333.469,259.742,333.469,250.245,327.611,244.387z"/>
	</g>
</g>
<g>
</g>
<g>
</g>
<g>
</g>
<g>
</g>
<g>
</g>
<g>
</g>
<g>
</g>
<g>
</g>
<g>
</g>
<g>
</g>
<g>
</g>
<g>
</g>
<g>
</g>
<g>
</g>
<g>
</g>
</svg>
