<?xml version="1.0" encoding="iso-8859-1"?>
<!-- Generator: Adobe Illustrator 19.0.0, SVG Export Plug-In . SVG Version: 6.00 Build 0)  -->
<svg version="1.1" id="Capa_1" xmlns="http://www.w3.org/2000/svg" xmlns:xlink="http://www.w3.org/1999/xlink" x="0px" y="0px"
	 viewBox="0 0 512.001 512.001" style="enable-background:new 0 0 512.001 512.001;" xml:space="preserve">
<g>
	<g>
		<path d="M470.962,26.808c-26.644-31.753-73.904-35.89-105.658-9.244l-36.424,30.563c-15.638-9.242-36.515-8.522-51.801,4.306
			c-15.1,12.67-19.707,33.021-13.233,50.264L140.925,205.843c-20.358,17.083-36.707,39.001-47.274,63.382
			c-2.574,5.938-4.098,12.306-4.607,19.312l-26.184,21.97c-18.138,15.221-21.183,41.512-7.869,60.363l-25.587,54.21
			c-3.9,8.131-5.878,16.851-5.878,25.922c0,33.019,26.677,60.998,59.998,60.998c33.381,0,59.998-28.036,59.998-60.998
			c0-9.039-1.964-17.732-5.838-25.84l-20.17-43.268c1.09-0.761,2.156-1.576,3.194-2.446l26.184-21.97
			c6.987,0.715,13.527,0.32,19.817-1.184c22.596-5.398,44.104-15.472,62.76-29.335c1.976-1.084,128.552-107.479,130.793-109.36
			c15.726,9.293,36.595,8.454,51.797-4.303c15.281-12.822,19.625-33.253,13.237-50.267l36.423-30.563
			C493.397,105.885,497.544,58.486,470.962,26.808z M83.524,482.003c-16.261,0-29.999-14.195-29.999-30.999
			c0-4.543,0.985-8.899,2.967-13.033l23.414-49.605c2.683,0.73,5.426,1.195,8.189,1.423l22.431,48.118
			c0.023,0.05,0.047,0.099,0.07,0.148c1.942,4.049,2.927,8.406,2.927,12.949C113.523,467.808,99.785,482.003,83.524,482.003z
			 M316.045,215.545l-28.923-34.471c-5.326-6.346-14.787-7.174-21.132-1.849c-6.347,5.325-7.174,14.786-1.85,21.131l28.924,34.471
			l-22.98,19.283l-28.925-34.471c-5.325-6.346-14.787-7.174-21.131-1.849c-6.347,5.325-7.174,14.786-1.849,21.132l28.924,34.471
			l-22.981,19.283l-28.925-34.471c-5.324-6.346-14.786-7.174-21.131-1.849c-6.347,5.325-7.174,14.786-1.849,21.132l27.795,33.125
			c-12.485,7.507-26.116,13.123-40.274,16.504c-4.139,0.99-8.826,0.93-14.328-0.183c-4.472-0.904-9.118,0.277-12.614,3.212
			l-31.369,26.322c-6.336,5.316-15.814,4.488-21.132-1.849c-5.329-6.353-4.503-15.802,1.849-21.132l31.37-26.322
			c3.498-2.935,5.469-7.303,5.354-11.867c-0.141-5.609,0.614-10.235,2.309-14.143c8.727-20.131,22.224-38.228,39.033-52.332
			l120.968-101.505l57.849,68.942L316.045,215.545z M442.437,109.489l-45.961,38.566c-6.347,5.325-7.174,14.785-1.85,21.131
			c5.331,6.352,4.503,15.801-1.849,21.132c-6.353,5.329-15.801,4.503-21.132-1.849l-77.131-91.922
			c-5.329-6.352-4.502-15.801,1.85-21.132c6.333-5.314,15.79-4.516,21.132,1.849c5.32,6.342,14.788,7.174,21.131,1.849
			l45.961-38.566c19.051-15.984,47.406-13.509,63.396,5.547C463.932,65.101,461.444,93.54,442.437,109.489z"/>
	</g>
</g>
<g>
</g>
<g>
</g>
<g>
</g>
<g>
</g>
<g>
</g>
<g>
</g>
<g>
</g>
<g>
</g>
<g>
</g>
<g>
</g>
<g>
</g>
<g>
</g>
<g>
</g>
<g>
</g>
<g>
</g>
</svg>
