<?xml version="1.0" encoding="iso-8859-1"?>
<!-- Generator: Adobe Illustrator 19.0.0, SVG Export Plug-In . SVG Version: 6.00 Build 0)  -->
<svg version="1.1" id="Capa_1" xmlns="http://www.w3.org/2000/svg" xmlns:xlink="http://www.w3.org/1999/xlink" x="0px" y="0px"
	 viewBox="0 0 512 512" style="enable-background:new 0 0 512 512;" xml:space="preserve">
<g>
	<g>
		<path d="M467,0H45C20.187,0,0,20.187,0,45c0,19.555,12.541,36.228,30,42.42V376c0,8.284,6.716,15,15,15h196v33.58
			c-17.459,6.192-30,22.865-30,42.42c0,24.813,20.187,45,45,45s45-20.187,45-45c0-19.555-12.541-36.228-30-42.42V391h196
			c8.284,0,15-6.716,15-15V87.42c17.459-6.192,30-22.865,30-42.42C512,20.187,491.813,0,467,0z M256,482c-8.271,0-15-6.729-15-15
			s6.729-15,15-15s15,6.729,15,15S264.271,482,256,482z M452,361H60V90h392V361z M467,60H45c-8.271,0-15-6.729-15-15s6.729-15,15-15
			h422c8.271,0,15,6.729,15,15S475.271,60,467,60z"/>
	</g>
</g>
<g>
	<g>
		<path d="M407,121h-61c-8.284,0-15,6.716-15,15s6.716,15,15,15h61c8.284,0,15-6.716,15-15S415.284,121,407,121z"/>
	</g>
</g>
<g>
	<g>
		<path d="M407,181h-31c-8.284,0-15,6.716-15,15s6.716,15,15,15h31c8.284,0,15-6.716,15-15S415.284,181,407,181z"/>
	</g>
</g>
<g>
	<g>
		<path d="M407,241h-91c-8.284,0-15,6.716-15,15s6.716,15,15,15h91c8.284,0,15-6.716,15-15S415.284,241,407,241z"/>
	</g>
</g>
<g>
	<g>
		<path d="M407,301h-31c-8.284,0-15,6.716-15,15s6.716,15,15,15h31c8.284,0,15-6.716,15-15S415.284,301,407,301z"/>
	</g>
</g>
<g>
	<g>
		<path d="M272.265,286.032l-16.189-26.593C265.232,251.196,271,239.26,271,226c0-12.111-4.818-23.111-12.626-31.208l14.425-28.851
			C288.506,165.007,301,151.938,301,136c0-16.542-13.458-30-30-30s-30,13.458-30,30c0,6.099,1.834,11.774,4.972,16.515l-14.42,28.84
			C229.731,181.129,227.881,181,226,181c-19.555,0-36.228,12.542-42.42,30h-37.616c-5.195-8.958-14.884-15-25.964-15
			c-16.542,0-30,13.458-30,30s13.458,30,30,30c11.08,0,20.769-6.042,25.964-15h37.616c6.192,17.458,22.865,30,42.42,30
			c0.658,0,1.311-0.021,1.962-0.05l17.682,29.046C242.708,304.631,241,310.118,241,316c0,16.542,13.458,30,30,30s30-13.458,30-30
			C301,299.882,288.222,286.698,272.265,286.032z M226,241c-8.271,0-15-6.729-15-15s6.729-15,15-15s15,6.729,15,15
			S234.271,241,226,241z"/>
	</g>
</g>
<g>
</g>
<g>
</g>
<g>
</g>
<g>
</g>
<g>
</g>
<g>
</g>
<g>
</g>
<g>
</g>
<g>
</g>
<g>
</g>
<g>
</g>
<g>
</g>
<g>
</g>
<g>
</g>
<g>
</g>
</svg>
