<?xml version="1.0" encoding="iso-8859-1"?>
<!-- Generator: Adobe Illustrator 19.0.0, SVG Export Plug-In . SVG Version: 6.00 Build 0)  -->
<svg version="1.1" id="Capa_1" xmlns="http://www.w3.org/2000/svg" xmlns:xlink="http://www.w3.org/1999/xlink" x="0px" y="0px"
	 viewBox="0 0 512.001 512.001" style="enable-background:new 0 0 512.001 512.001;" xml:space="preserve">
<g>
	<g>
		<circle cx="235.922" cy="276.079" r="14.999"/>
	</g>
</g>
<g>
	<g>
		<circle cx="193.493" cy="233.651" r="14.999"/>
	</g>
</g>
<g>
	<g>
		<circle cx="257.131" cy="212.442" r="14.999"/>
	</g>
</g>
<g>
	<g>
		<circle cx="299.559" cy="254.87" r="14.999"/>
	</g>
</g>
<g>
	<g>
		<circle cx="278.35" cy="318.508" r="14.999"/>
	</g>
</g>
<g>
	<g>
		<path d="M487.469,130.595l11.342-11.343c17.586-17.585,17.588-46.048,0-63.636L456.387,13.19
			c-17.545-17.545-46.094-17.542-63.637,0l-11.343,11.342l-10.606-10.606c-17.544-17.546-46.093-17.544-63.637,0
			c-1.98,1.98-203.985,203.985-209.123,209.123l-84.849,84.85c-17.586,17.587-17.589,46.05,0,63.637l127.274,127.275
			c17.544,17.543,46.091,17.544,63.636,0c8.437-8.437,291.092-291.091,293.973-293.973c17.545-17.544,17.545-46.092,0-63.637
			L487.469,130.595z M182.89,477.598c-5.849,5.849-15.363,5.849-21.212,0L34.404,350.324c-5.863-5.864-5.863-15.349,0-21.212
			l74.243-74.244l148.486,148.486L182.89,477.598z M278.346,382.143L129.859,233.656c2.778-2.778,103.028-103.028,106.062-106.062
			L384.407,276.08C380.62,279.869,283.34,377.149,278.346,382.143z M455.651,141.202l21.213,21.211
			c5.863,5.864,5.863,15.349,0,21.213L405.62,254.87L257.134,106.382l71.243-71.243c5.862-5.862,15.35-5.863,21.213,0l21.212,21.212
			c5.857,5.858,15.354,5.858,21.212,0l21.948-21.948c5.849-5.849,15.364-5.849,21.213,0L477.6,76.829
			c5.863,5.863,5.863,15.348,0,21.212l-21.948,21.948C449.798,125.841,449.793,135.345,455.651,141.202z"/>
	</g>
</g>
<g>
	<g>
		<path d="M182.891,371.536l-42.425-42.424c-5.857-5.858-15.354-5.858-21.212,0c-5.858,5.858-5.858,15.354,0,21.212l42.425,42.424
			c5.857,5.858,15.355,5.858,21.212,0C188.749,386.891,188.749,377.394,182.891,371.536z"/>
	</g>
</g>
<g>
	<g>
		<path d="M405.62,127.595l10.606-10.607c5.859-5.858,5.859-15.355,0-21.212c-5.857-5.858-15.354-5.858-21.212,0l-10.606,10.606
			l-10.607-10.606c-5.856-5.857-15.353-5.858-21.212,0c-5.858,5.857-5.858,15.354,0,21.212l10.606,10.607l-10.606,10.606
			c-5.858,5.858-5.858,15.354,0,21.212c5.857,5.858,15.355,5.858,21.212,0l10.606-10.606l10.606,10.606
			c5.857,5.858,15.354,5.858,21.212,0c5.858-5.857,5.858-15.354,0-21.212L405.62,127.595z"/>
	</g>
</g>
<g>
</g>
<g>
</g>
<g>
</g>
<g>
</g>
<g>
</g>
<g>
</g>
<g>
</g>
<g>
</g>
<g>
</g>
<g>
</g>
<g>
</g>
<g>
</g>
<g>
</g>
<g>
</g>
<g>
</g>
</svg>
