<?xml version="1.0" encoding="iso-8859-1"?>
<!-- Generator: Adobe Illustrator 19.0.0, SVG Export Plug-In . SVG Version: 6.00 Build 0)  -->
<svg version="1.1" id="Capa_1" xmlns="http://www.w3.org/2000/svg" xmlns:xlink="http://www.w3.org/1999/xlink" x="0px" y="0px"
	 viewBox="0 0 512 512" style="enable-background:new 0 0 512 512;" xml:space="preserve">
<g>
	<g>
		<path d="M394.189,171.086L331,155.289V90h15c8.284,0,15-6.716,15-15V45c0-24.813-20.187-45-45-45H196c-24.813,0-45,20.187-45,45
			v30c0,8.284,6.716,15,15,15h15v65.289l-63.189,15.797C84.361,179.448,61,209.368,61,243.847V437c0,41.355,33.645,75,75,75h240
			c41.355,0,75-33.645,75-75V243.847C451,209.368,427.639,179.449,394.189,171.086z M181,45c0-8.271,6.729-15,15-15h120
			c8.271,0,15,6.729,15,15v15c-3.957,0-145.977,0-150,0V45z M421,437c0,24.813-20.187,45-45,45H136c-24.813,0-45-20.187-45-45
			V243.847c0-20.687,14.017-38.639,34.086-43.656l74.552-18.639C206.315,179.883,211,173.883,211,167V90h90v77
			c0,6.883,4.685,12.883,11.362,14.552l74.552,18.638C406.983,205.208,421,223.16,421,243.847V437z"/>
	</g>
</g>
<g>
	<g>
		<path d="M385.459,425.358l-45.023-36.581l7.383-7.384c8.5-8.5,13.181-19.8,13.181-31.819V332c0-17.576-4.347-34.154-12.014-48.725
			l36.473-29.634c6.43-5.224,7.407-14.671,2.183-21.101c-5.225-6.429-14.669-7.406-21.101-2.183l-35.193,28.594
			C312.251,239.26,285.532,227,256,227c-29.532,0-56.251,12.26-75.348,31.953l-35.193-28.594c-6.43-5.224-15.877-4.247-21.101,2.183
			c-5.224,6.429-4.247,15.876,2.183,21.1l36.473,29.634C155.347,297.846,151,314.424,151,332v17.574
			c0,12.02,4.681,23.32,13.18,31.819l7.385,7.385l-45.023,36.581c-6.43,5.224-7.407,14.671-2.183,21.101
			c5.225,6.429,14.669,7.407,21.101,2.183L181,419.765V422c0,16.542,13.458,30,30,30h90c16.542,0,30-13.458,30-30v-2.235
			l35.541,28.877c6.432,5.226,15.879,4.245,21.101-2.183C392.867,440.029,391.889,430.582,385.459,425.358z M331,349.574
			c0,4.006-1.561,7.773-4.395,10.607l-12.426,12.427h0.001c-8.5,8.5-13.181,19.8-13.181,31.819V422h-29v-14.375
			c0-8.284-6.716-15-15-15s-15,6.716-15,15V422h-31v-17.574c0-12.02-4.681-23.32-13.18-31.819l-12.427-12.427
			c-2.833-2.833-4.394-6.6-4.394-10.606V332H181c0-41.355,33.645-75,75-75s75,33.645,75,75V349.574z"/>
	</g>
</g>
<g>
	<g>
		<circle cx="226" cy="332" r="15"/>
	</g>
</g>
<g>
	<g>
		<circle cx="286" cy="332" r="15"/>
	</g>
</g>
<g>
</g>
<g>
</g>
<g>
</g>
<g>
</g>
<g>
</g>
<g>
</g>
<g>
</g>
<g>
</g>
<g>
</g>
<g>
</g>
<g>
</g>
<g>
</g>
<g>
</g>
<g>
</g>
<g>
</g>
</svg>
