<?xml version="1.0" encoding="iso-8859-1"?>
<!-- Generator: Adobe Illustrator 19.0.0, SVG Export Plug-In . SVG Version: 6.00 Build 0)  -->
<svg version="1.1" id="Capa_1" xmlns="http://www.w3.org/2000/svg" xmlns:xlink="http://www.w3.org/1999/xlink" x="0px" y="0px"
	 viewBox="0 0 511.998 511.998" style="enable-background:new 0 0 511.998 511.998;" xml:space="preserve">
<g>
	<g>
		<path d="M506.639,123.109c-6.814-26.148-33.436-39.114-56.566-32.291c-23.19,6.839-36.883,31.042-30.585,54.77
			c6.858,25.844-0.577,53.596-19.407,72.426c-22.417,22.417-56.735,28.302-85.388,14.647c-5.735-2.734-12.57-1.557-17.063,2.936
			l-80.897,80.897l-21.218-21.217l80.897-80.897c4.493-4.492,5.668-11.327,2.936-17.062c-13.656-28.658-7.771-62.972,14.648-85.39
			c18.831-18.831,46.583-26.264,72.425-19.407c24.348,6.462,48.173-8.099,54.775-30.585c6.795-23.148-6.128-49.746-32.296-56.566
			C332.597-9.307,272.152,6.463,230.343,48.272c-34.585,34.584-52.181,82.863-47.519,132.388l-50.96,50.96l-21.217-21.218
			l10.609-10.608c5.859-5.859,5.859-15.358,0-21.217c-5.858-5.859-15.358-5.859-21.217,0L87.605,191.01
			c-16.727-7.969-37.39-5.046-51.219,8.784c-13.831,13.83-16.752,34.492-8.784,51.219l-12.433,12.433
			c-5.859,5.859-5.859,15.358,0,21.217c5.858,5.859,15.359,5.859,21.217,0l10.608-10.608l21.218,21.217l-55.044,55.044
			c-17.549,17.548-17.549,46.103,0,63.651c17.547,17.548,46.102,17.549,63.651,0l55.044-55.044l21.218,21.217l-55.044,55.044
			c-17.549,17.548-17.549,46.103,0,63.652c17.547,17.547,46.103,17.548,63.652,0l55.044-55.044l21.217,21.217l-10.609,10.609
			c-5.859,5.859-5.859,15.358,0,21.217c5.858,5.858,15.358,5.859,21.217,0l12.433-12.433c16.799,8.003,37.431,5.004,51.219-8.784
			c13.831-13.83,16.752-34.492,8.784-51.218l12.433-12.433c5.859-5.859,5.859-15.358,0-21.217c-5.858-5.858-15.358-5.859-21.217,0
			l-10.608,10.609l-21.217-21.217l50.96-50.96c49.631,4.668,97.872-13.002,132.388-47.519c20.703-20.705,35.539-46.58,42.902-74.829
			C513.776,179.449,513.777,150.496,506.639,123.109z M57.603,242.229c-5.85-5.85-5.85-15.368,0-21.217
			c5.851-5.849,15.369-5.85,21.218,0l31.826,31.826L89.43,274.056L57.603,242.229z M55.603,392.752
			c-5.849,5.849-15.366,5.849-21.217,0c-5.85-5.85-5.85-15.368,0-21.217c8.054-8.054,166.767-166.767,174.792-174.792
			c3.334-3.334,4.906-8.04,4.247-12.707c-6.012-42.547,7.888-84.297,38.135-114.543c33.511-33.511,83.161-47.234,129.77-35.087
			c8.271,2.155,12.732,10.125,11.395,17.527c-1.442,7.988-9.46,14.011-18.609,11.585c-36.139-9.591-74.974,0.826-101.339,27.191
			c-28.817,28.816-38.124,71.666-24.66,109.529L55.603,392.752z M153.081,337.707l21.218-21.217l21.218,21.217l-21.218,21.217
			L153.081,337.707z M290.99,433.181c0.002,0.001,0.003,0.003,0.005,0.005c0.001,0.001,0.001,0.001,0.002,0.002
			c5.847,5.85,5.846,15.366-0.002,21.215c-5.848,5.847-15.365,5.85-21.215,0.002c-0.001,0-0.001-0.001-0.002-0.002
			c-0.002-0.001-0.003-0.003-0.005-0.004l-31.82-31.821l21.217-21.217L290.99,433.181z M442.517,260.447
			c-29.838,29.836-71.421,44.23-114.545,38.134c-4.668-0.663-9.376,0.913-12.707,4.247c-8.22,8.22-166.126,166.126-174.792,174.792
			c-5.85,5.85-15.368,5.849-21.218,0c-5.85-5.85-5.85-15.368,0-21.218c10.721-10.72,182.304-182.303,192.516-192.514
			c37.863,13.464,80.711,4.157,109.528-24.659c26.365-26.364,36.784-65.196,27.192-101.341c-2.192-8.257,2.553-15.808,9.585-18.123
			c7.677-2.526,17.123,1.68,19.529,10.91C489.678,177.006,476.234,226.73,442.517,260.447z"/>
	</g>
</g>
<g>
</g>
<g>
</g>
<g>
</g>
<g>
</g>
<g>
</g>
<g>
</g>
<g>
</g>
<g>
</g>
<g>
</g>
<g>
</g>
<g>
</g>
<g>
</g>
<g>
</g>
<g>
</g>
<g>
</g>
</svg>
