<?xml version="1.0" encoding="iso-8859-1"?>
<!-- Generator: Adobe Illustrator 19.0.0, SVG Export Plug-In . SVG Version: 6.00 Build 0)  -->
<svg version="1.1" id="Capa_1" xmlns="http://www.w3.org/2000/svg" xmlns:xlink="http://www.w3.org/1999/xlink" x="0px" y="0px"
	 viewBox="0 0 512.002 512.002" style="enable-background:new 0 0 512.002 512.002;" xml:space="preserve">
<g>
	<g>
		<path d="M255.001,0.058C156.296,0.432,77.669,78.875,76.029,177.002c-0.868,51.946,20.287,101.308,59.839,136.813
			c9.617,8.632,15.133,20.798,15.133,33.376v59.811c0,24.813,20.187,45,45,45h15v15c0,24.813,20.187,45,45,45s45-20.187,45-45v-15
			h15c24.813,0,45-20.187,45-45v-59.781c0-12.562,5.617-24.829,15.412-33.658c37.869-34.135,59.588-82.816,59.588-133.561
			C436.001,80.297,354.934-0.321,255.001,0.058z M271.001,467.002c0,8.271-6.729,15-15,15c-8.271,0-15-6.729-15-15v-15h30V467.002z
			 M331.001,407.002c0,8.271-6.729,15-15,15c-12.617,0-107.005,0-120,0c-8.271,0-15-6.729-15-15v-17h150V407.002z M331.001,347.221
			v12.781h-150v-12.811c0-5.828-0.723-11.591-2.071-17.189c7.907,0,149.131,0,154.17,0
			C331.734,335.619,331.001,341.392,331.001,347.221z M241.001,300.002c0-4.295,0-115.568,0-120h30c0,4.432,0,115.707,0,120H241.001
			z M356.328,291.279c-3.01,2.713-5.779,5.632-8.293,8.723h-47.033v-62.58c4.695,1.665,9.741,2.58,15,2.58c24.813,0,45-20.187,45-45
			c0-24.813-20.187-45-45-45c-12.802,0-107.206,0-120,0c-24.813,0-45,20.187-45,45c0,24.813,20.187,45,45,45
			c5.259,0,10.305-0.915,15-2.58v62.58h-46.973c-2.466-3.019-5.175-5.869-8.12-8.512c-32.798-29.441-50.413-70.358-49.872-113.488
			c1.022-81.628,66.523-147.939,149.618-147.939c83.296,0,150.347,67.233,150.347,149.939
			C406.002,222.264,387.897,262.824,356.328,291.279z M301.001,195.002v-15h15c8.271,0,15,6.729,15,15s-6.729,15-15,15
			S301.001,203.273,301.001,195.002z M211.001,180.002v15c0,8.271-6.729,15-15,15s-15-6.729-15-15s6.729-15,15-15H211.001z"/>
	</g>
</g>
<g>
	<g>
		<path d="M88.073,291.097c-4.919-6.667-14.311-8.084-20.976-3.166l-61,45c-6.667,4.918-8.085,14.309-3.167,20.976
			c4.918,6.666,14.309,8.084,20.976,3.166l61-45C91.573,307.155,92.991,297.764,88.073,291.097z"/>
	</g>
</g>
<g>
	<g>
		<path d="M509.073,6.097c-4.92-6.667-14.31-8.084-20.976-3.166l-61,45c-6.667,4.918-8.085,14.309-3.167,20.976
			c4.918,6.666,14.309,8.084,20.976,3.166l61-45C512.573,22.155,513.99,12.764,509.073,6.097z"/>
	</g>
</g>
<g>
	<g>
		<path d="M505.906,332.931l-61-45c-6.665-4.917-16.057-3.501-20.976,3.166c-4.918,6.667-3.5,16.058,3.167,20.976l61,45
			c6.667,4.919,16.058,3.499,20.976-3.166C513.99,347.24,512.573,337.849,505.906,332.931z"/>
	</g>
</g>
<g>
	<g>
		<path d="M84.906,47.931l-61-45C17.24-1.986,7.849-0.57,2.93,6.097c-4.918,6.667-3.5,16.058,3.167,20.976l61,45
			c6.667,4.919,16.058,3.499,20.976-3.166C92.99,62.24,91.573,52.849,84.906,47.931z"/>
	</g>
</g>
<g>
</g>
<g>
</g>
<g>
</g>
<g>
</g>
<g>
</g>
<g>
</g>
<g>
</g>
<g>
</g>
<g>
</g>
<g>
</g>
<g>
</g>
<g>
</g>
<g>
</g>
<g>
</g>
<g>
</g>
</svg>
