<?xml version="1.0" encoding="iso-8859-1"?>
<!-- Generator: Adobe Illustrator 19.0.0, SVG Export Plug-In . SVG Version: 6.00 Build 0)  -->
<svg version="1.1" id="Capa_1" xmlns="http://www.w3.org/2000/svg" xmlns:xlink="http://www.w3.org/1999/xlink" x="0px" y="0px"
	 viewBox="0 0 512.003 512.003" style="enable-background:new 0 0 512.003 512.003;" xml:space="preserve">
<g>
	<g>
		<path d="M497.001,90h-61h-105v-2.57c17.461-6.191,30-22.874,30-42.43c0-24.813-20.187-45-45-45h-120c-24.813,0-45,20.187-45,45
			c0,19.556,12.539,36.239,30,42.43V90h-76c-24.813,0-45,20.187-45,45c0,5.257,0.906,10.307,2.57,15h-17.57
			c-24.813,0-45,20.187-45,45s20.187,44.9,45,44.9h17.57c-1.664,4.693-2.57,9.843-2.57,15.1c0,24.813,20.187,44.9,45,44.9h18.57
			c-1.664,4.693-2.57,9.843-2.57,15.1c0,24.813,20.187,44.9,45,44.9h30c0.013,0,0.026-0.002,0.039-0.002
			C209.737,378.103,231.516,390,256.001,390c24.485,0,46.264-11.897,59.961-30.102c0.013,0,0.026,0.002,0.039,0.002h181
			c8.284,0,15-6.616,15-14.9V105C512.001,96.716,505.285,90,497.001,90z M105.001,120h76v30h-76c-8.271,0-15-6.729-15-15
			S96.73,120,105.001,120z M45.001,210c-8.271,0-15-6.729-15-15s6.729-15,15-15h136v30H45.001z M105.001,270
			c-8.271,0-15-6.729-15-15s6.729-15,15-15h76v30H105.001z M166.001,330c-8.271,0-15-6.729-15-15s6.729-15,15-15h15v15
			c0,5.136,0.521,10.152,1.509,15H166.001z M301.001,315c0,24.813-20.187,45-45,45s-45-20.187-45-45v-45h90V315z M301.001,240h-90
			V75c0-8.284-6.716-15-15-15c-8.271,0-15-6.729-15-15s6.729-15,15-15h120c8.271,0,15,6.729,15,15s-6.729,15-15,15
			c-8.284,0-15,6.716-15,15v15h-15c-24.813,0-45,20.187-45,45s20.187,45,45,45h15V240z M421.001,330h-91.509
			c0.988-4.848,1.509-9.864,1.509-15v-46.534c10.983,11.237,24.559,20.097,40.001,25.555c7.811,2.762,16.382-1.333,19.142-9.144
			c2.761-7.811-1.333-16.38-9.144-19.141c-29.906-10.57-49.999-38.997-49.999-70.736v-15h45c8.284,0,15-6.716,15-15s-6.716-15-15-15
			h-90c-8.271,0-15-6.729-15-15s6.729-15,15-15c2.961,0,132.291,0,135,0V330z M482.001,330h-31V120h31V330z"/>
	</g>
</g>
<g>
	<g>
		<path d="M393.829,433.616c-5.857-5.858-15.355-5.858-21.213,0c-26.044,26.043-57.689,43.301-89.106,48.593
			c-8.17,1.375-13.677,9.113-12.301,17.283c1.377,8.174,9.12,13.676,17.283,12.3c37.514-6.319,74.923-26.549,105.337-56.963
			C399.687,448.971,399.687,439.474,393.829,433.616z"/>
	</g>
</g>
<g>
	<g>
		<path d="M228.492,482.208c-31.417-5.292-63.063-22.55-89.106-48.593c-5.857-5.858-15.355-5.858-21.213,0
			c-5.858,5.858-5.858,15.355,0,21.213c30.414,30.415,67.823,50.645,105.337,56.963c8.17,1.376,15.907-4.132,17.283-12.3
			C242.169,491.322,236.662,483.584,228.492,482.208z"/>
	</g>
</g>
<g>
	<g>
		<path d="M351.42,390.206c-5.857-5.857-15.355-5.857-21.213,0c-16.627,16.627-32.762,27.048-47.958,30.974
			c-8.021,2.072-12.844,10.254-10.771,18.275c2.073,8.025,10.261,12.843,18.275,10.771c20.454-5.284,41.201-18.341,61.667-38.807
			C357.278,405.561,357.278,396.064,351.42,390.206z"/>
	</g>
</g>
<g>
	<g>
		<path d="M229.754,421.18c-15.196-3.926-31.331-14.347-47.958-30.974c-5.857-5.858-15.355-5.857-21.213,0
			c-5.858,5.858-5.858,15.355,0,21.213c20.466,20.466,41.213,33.523,61.667,38.807c8.022,2.073,16.203-2.753,18.275-10.771
			C242.597,431.434,237.775,423.252,229.754,421.18z"/>
	</g>
</g>
<g>
</g>
<g>
</g>
<g>
</g>
<g>
</g>
<g>
</g>
<g>
</g>
<g>
</g>
<g>
</g>
<g>
</g>
<g>
</g>
<g>
</g>
<g>
</g>
<g>
</g>
<g>
</g>
<g>
</g>
</svg>
