<?xml version="1.0" encoding="iso-8859-1"?>
<!-- Generator: Adobe Illustrator 19.0.0, SVG Export Plug-In . SVG Version: 6.00 Build 0)  -->
<svg version="1.1" id="Capa_1" xmlns="http://www.w3.org/2000/svg" xmlns:xlink="http://www.w3.org/1999/xlink" x="0px" y="0px"
	 viewBox="0 0 512.001 512.001" style="enable-background:new 0 0 512.001 512.001;" xml:space="preserve">
<g>
	<g>
		<path d="M507.607,4.394c-5.858-5.857-15.356-5.857-21.213,0.001l-91.38,91.38c-16.724-7.966-37.382-5.045-51.208,8.782
			l-21.433,21.432c-23.182-3.26-46.836,4.409-63.42,20.994c0,0-129,129-139.71,139.71c-16.724-7.967-37.383-5.044-51.209,8.782
			c-17.587,17.585-17.59,46.051,0,63.64l10.606,10.606l-42.427,42.427l-10.607-10.607c-5.857-5.857-15.355-5.858-21.213,0
			c-5.858,5.857-5.858,15.355,0,21.213c4.061,4.061,80.794,80.795,84.853,84.853c5.857,5.858,15.355,5.858,21.213,0
			c5.858-5.857,5.858-15.355,0-21.213l-10.607-10.607l42.427-42.427l10.607,10.607c17.585,17.586,46.052,17.589,63.64,0
			c14.029-14.027,16.701-34.726,8.801-51.228l139.691-139.691c16.585-16.585,24.253-40.241,20.994-63.42l21.433-21.433
			c13.827-13.827,16.748-34.484,8.782-51.208l91.38-91.38C513.465,19.749,513.465,10.252,507.607,4.394z M78.641,454.575
			c-13.953-13.952-12.459-12.458-21.214-21.213l42.427-42.426c13.818,13.817,9.643,9.643,21.214,21.213L78.641,454.575z
			 M195.313,422.755c-5.85,5.85-15.364,5.848-21.214,0c-3.082-3.082-81.376-81.376-84.853-84.853
			c-5.849-5.848-5.849-15.365,0-21.213c5.85-5.848,15.366-5.848,21.214,0l84.853,84.853
			C201.162,407.39,201.162,416.907,195.313,422.755z M205.92,369.722l-45.962-45.962l-17.678-17.678l21.213-21.213l31.82,31.82
			c5.857,5.858,15.355,5.858,21.213,0c5.858-5.858,5.858-15.355,0-21.213l-31.82-31.82l21.213-21.213l63.64,63.64L205.92,369.722z
			 M386.232,146.983l-27.098,27.098c-3.776,3.776-5.26,9.275-3.896,14.438c4.172,15.792-0.102,31.985-11.434,43.317l-53.033,53.033
			l-63.64-63.64l21.213-21.213l31.82,31.82c5.856,5.858,15.354,5.858,21.213,0c5.859-5.858,5.858-15.355,0-21.213l-31.82-31.82
			l10.607-10.607c11.332-11.332,27.527-15.605,43.316-11.433c5.162,1.365,10.662-0.119,14.438-3.896l27.098-27.098
			c5.849-5.848,15.365-5.848,21.213-0.001l0.001,0.001c0.001,0.001,0.001,0.001,0.002,0.001
			C392.08,131.62,392.08,141.135,386.232,146.983z"/>
	</g>
</g>
<g>
</g>
<g>
</g>
<g>
</g>
<g>
</g>
<g>
</g>
<g>
</g>
<g>
</g>
<g>
</g>
<g>
</g>
<g>
</g>
<g>
</g>
<g>
</g>
<g>
</g>
<g>
</g>
<g>
</g>
</svg>
