<?xml version="1.0" encoding="iso-8859-1"?>
<!-- Generator: Adobe Illustrator 19.0.0, SVG Export Plug-In . SVG Version: 6.00 Build 0)  -->
<svg version="1.1" id="Capa_1" xmlns="http://www.w3.org/2000/svg" xmlns:xlink="http://www.w3.org/1999/xlink" x="0px" y="0px"
	 viewBox="0 0 512.001 512.001" style="enable-background:new 0 0 512.001 512.001;" xml:space="preserve">
<g>
	<g>
		<path d="M467.001,180.006h-25.142c6.617-13.944,10.142-29.28,10.142-44.999v-30c0-8.284-6.716-15-15-15h-30
			c-22.591,0-43.549,7.041-60.767,19.018c-17.569-12.32-38.535-19.018-60.231-19.018h-30c-8.284,0-15,6.716-15,15v30
			c0,5.237,0.408,10.428,1.172,15.544l-6.473-5.178c-37.117-29.694-69.855-66.847-97.302-110.428
			C112.915-5.533,56.108-12.159,21.975,21.975c-34.094,34.093-27.558,90.907,12.968,116.426
			c20.608,12.979,39.66,26.905,56.968,41.604H45.008c-24.813,0-44.999,20.187-44.999,44.999c0,19.555,12.541,36.227,30,42.419v18.58
			c0,65.09,37.89,121.492,92.769,148.325c-3.871,2.707-7.532,5.793-10.923,9.262c-14.088,14.413-21.847,33.38-21.847,53.411
			c0,8.284,6.716,15,15,15h301.995c8.284,0,15-6.716,15-15c0-20.033-7.979-39.044-22.467-53.532
			c-3.407-3.407-7.072-6.439-10.933-9.107c55.248-26.82,93.398-83.241,93.398-148.358v-18.58c17.459-6.192,30-22.865,30-42.419
			C512,200.193,491.814,180.006,467.001,180.006z M407.002,120.006h15v15c0,16.319-5.293,32.066-15.006,44.999h-74.464
			C339.593,145.814,370.301,120.006,407.002,120.006z M271.003,120.006h0.001h15c13.353,0,26.318,3.556,37.677,10.163
			c-11.241,14.144-18.89,31.209-21.592,49.836h-16.081c-9.712-12.934-15.006-28.681-15.006-44.999V120.006z M50.93,113.017
			C26.708,97.76,22.698,63.678,43.188,43.188c20.465-20.466,54.554-16.513,69.828,7.742
			c29.236,46.421,64.209,86.078,103.947,117.868l14.009,11.208H136.34C111.816,155.804,83.113,133.287,50.93,113.017z
			 M389.387,482.001H122.563c6.241-17.833,23.159-31,42.441-31c7.151,0,173.833,0,180.997,0
			C365.715,451.001,383.008,464.168,389.387,482.001z M452.001,286.004c0,74.438-61.009,134.998-135.998,134.998H195.005
			c-74.438,0-134.998-60.56-134.998-134.998v-16h391.994V286.004z M467.001,240.004H45.008c-8.271,0-15-6.729-15-15
			c0-8.271,6.729-15,15-15c16.604,0,419.121,0,421.993,0c8.271,0,15,6.729,15,15C482.001,233.275,475.272,240.004,467.001,240.004z"
			/>
	</g>
</g>
<g>
</g>
<g>
</g>
<g>
</g>
<g>
</g>
<g>
</g>
<g>
</g>
<g>
</g>
<g>
</g>
<g>
</g>
<g>
</g>
<g>
</g>
<g>
</g>
<g>
</g>
<g>
</g>
<g>
</g>
</svg>
