<?xml version="1.0" encoding="iso-8859-1"?>
<!-- Generator: Adobe Illustrator 19.0.0, SVG Export Plug-In . SVG Version: 6.00 Build 0)  -->
<svg version="1.1" id="Capa_1" xmlns="http://www.w3.org/2000/svg" xmlns:xlink="http://www.w3.org/1999/xlink" x="0px" y="0px"
	 viewBox="0 0 512 512" style="enable-background:new 0 0 512 512;" xml:space="preserve">
<g>
	<g>
		<path d="M451,301c-2.122,0-237.708,0-240,0c-8.284,0-15,6.716-15,15s6.716,15,15,15h16.509
			c2.163,10.613,6.587,20.407,12.725,28.883C235.563,360.628,230.812,361,226,361c-49.626,0-90-40.823-90-91
			c0-25.238,10.674-49.167,29.03-66.117l33.856,33.856c13.791,13.792,34.421,16.779,51.209,8.782l12.431,12.431
			c17.545,17.545,46.094,17.546,63.64,0c17.587-17.586,17.59-46.051,0-63.639l-12.431-12.431
			c7.966-16.723,5.045-37.381-8.782-51.208l-84.854-84.854c-13.827-13.828-34.484-16.748-51.208-8.782L135.246,4.394
			c-5.857-5.858-15.355-5.858-21.213,0L71.607,46.821c-5.853,5.852-5.858,15.356,0,21.213l33.645,33.644
			c-5.383,11.3-5.792,24.391-1.225,35.964C67.003,171.701,46,219.238,46,270c0,77.579,49.712,145.603,120,170.691V482H91
			c-8.284,0-15,6.716-15,15s6.716,15,15,15h240c8.284,0,15-6.716,15-15s-6.716-15-15-15h-75v-33.486
			c40.316-6.718,76.697-26.775,104.153-57.514H361c36.22,0,66.522-25.808,73.491-60H451c8.284,0,15-6.716,15-15S459.284,301,451,301
			z M304.952,216.527c5.863,5.863,5.863,15.35,0,21.213c-5.848,5.848-15.364,5.849-21.214,0l-10.606-10.606l21.214-21.214
			L304.952,216.527z M177.673,68.034c5.847-5.848,15.365-5.849,21.213,0l84.853,84.852c5.849,5.849,5.849,15.365,0.001,21.213
			l-42.427,42.427c-5.849,5.848-15.365,5.849-21.214,0l-84.853-84.853c-5.849-5.848-5.849-15.365,0-21.213L177.673,68.034z
			 M103.426,57.428l21.214-21.213l21.214,21.213c-18.848,18.848-13.585,13.585-21.214,21.213L103.426,57.428z M226,482h-30v-33.497
			c9.812,1.653,19.82,2.5,29.956,2.5c0.015,0,0.029,0,0.044,0V482z M239.6,420.393c-0.02,0.002-0.039,0.006-0.059,0.008
			c-0.054,0.005-0.108,0.011-0.161,0.017C149.029,428.214,76,355.815,76,270c0-41.463,16.812-80.35,46.537-108.61l21.265,21.265
			C119.879,205.191,106,236.74,106,270c0,66.205,53.719,121,120,121c14.532,0,28.653-2.569,42.087-7.626
			C278.03,388.251,289.198,391,301,391h15.094C294.026,407.654,267.761,417.865,239.6,420.393z M361,361c-7.48,0-50.837,0-60,0
			c-19.557,0-36.239-12.539-42.43-30h144.86C397.24,348.461,380.557,361,361,361z"/>
	</g>
</g>
<g>
</g>
<g>
</g>
<g>
</g>
<g>
</g>
<g>
</g>
<g>
</g>
<g>
</g>
<g>
</g>
<g>
</g>
<g>
</g>
<g>
</g>
<g>
</g>
<g>
</g>
<g>
</g>
<g>
</g>
</svg>
