<?xml version="1.0" encoding="iso-8859-1"?>
<!-- Generator: Adobe Illustrator 19.0.0, SVG Export Plug-In . SVG Version: 6.00 Build 0)  -->
<svg version="1.1" id="Capa_1" xmlns="http://www.w3.org/2000/svg" xmlns:xlink="http://www.w3.org/1999/xlink" x="0px" y="0px"
	 viewBox="0 0 511.999 511.999" style="enable-background:new 0 0 511.999 511.999;" xml:space="preserve">
<g>
	<g>
		<path d="M437.93,255.914c8.269-7.481,17.395-16.263,26.33-25.88c31.413-33.809,60.456-77.922,41.555-112.022
			c-15.235-27.484-55.426-36.048-116.22-24.764c-15.277,2.835-31.403,6.85-48.113,11.939c-2.453-8.504-5.122-16.659-8.009-24.401
			C314.13,28.91,286.574,0.34,255.881,0.34s-58.248,28.57-77.591,80.447c-2.895,7.764-5.571,15.944-8.029,24.472
			c-18.308-5.573-35.886-9.866-52.328-12.723c-5.796-18.119-22.793-31.277-42.81-31.277c-21.315,0-39.198,14.92-43.787,34.863
			c-11.422,4.972-19.885,12.301-25.2,21.891c-15.223,27.461-1.092,65.951,40.866,111.31c8.161,8.822,17.204,17.713,27.018,26.593
			c-9.887,8.936-18.991,17.884-27.205,26.762C4.857,328.035-9.275,366.525,5.947,393.986c19.71,35.559,76.236,32.185,116.22,24.764
			c15.277-2.835,31.403-6.851,48.113-11.939c2.453,8.504,5.122,16.659,8.009,24.401c19.342,51.877,46.898,80.447,77.591,80.447
			s58.248-28.57,77.591-80.447c2.887-7.744,5.557-15.901,8.01-24.405c6.694,2.051,13.284,3.927,19.751,5.619
			c3.213,21.65,21.919,38.315,44.448,38.315c18.626,0,34.639-11.391,41.445-27.571c36.305-2.47,52.059-16.886,58.875-29.182
			C530.379,350.008,474.991,289.41,437.93,255.914z M75.122,91.218c8.26,0,14.98,6.72,14.98,14.98c0,8.26-6.72,14.98-14.98,14.98
			c-7.563,0-13.818-5.638-14.823-12.93c0.093-1.095,0.065-2.208-0.093-3.328C60.858,97.258,67.292,91.218,75.122,91.218z
			 M68.994,208.977c-36.434-39.388-42.825-65.312-36.656-76.44c0.884-1.594,2.082-3.061,3.583-4.4
			c7.705,13.712,22.384,23.002,39.201,23.002c18.921,0,35.135-11.758,41.752-28.347c14.547,2.71,30.026,6.59,46.147,11.546
			c-4.063,19.117-7.138,39.522-9.158,60.763c-20.422,13.341-39.516,27.179-56.855,41.197
			C86.751,227.163,77.363,218.024,68.994,208.977z M151.422,278.982c-10.882-7.606-21.274-15.326-31.084-23.103
			c9.605-7.611,19.977-15.325,31.091-23.076C150.887,248.295,150.884,263.47,151.422,278.982z M116.7,389.293
			c-52.878,9.815-78.347,1.356-84.549-9.832c-7.358-13.274,4.156-40.354,33.994-73.529c8.711-9.686,18.985-19.891,30.807-30.425
			c17.347,14.038,36.456,27.899,56.898,41.261c2.022,21.307,5.105,41.773,9.182,60.944
			C146.895,382.675,131.363,386.572,116.7,389.293z M325.409,174.851c-12.511-7.352-23.622-13.477-34.6-19.24
			c9.9-4.205,19.699-8.095,29.349-11.648C322.191,153.906,323.945,164.225,325.409,174.851z M206.362,91.253
			C220.593,53.086,239.105,30.3,255.881,30.3s35.288,22.787,49.519,60.954c2.761,7.407,5.309,15.24,7.644,23.428
			c-18.642,6.75-37.795,14.691-57.128,23.687c-19.324-8.957-38.523-16.878-57.216-23.627
			C201.04,106.532,203.593,98.679,206.362,91.253z M191.597,143.999c9.684,3.556,19.519,7.45,29.447,11.652
			c-11.418,6.006-22.616,12.21-34.706,19.319C187.802,164.316,189.559,153.969,191.597,143.999z M186.32,336.906
			c11.895,7,23.356,13.367,34.826,19.398c-9.966,4.237-19.829,8.153-29.542,11.73C189.555,358.017,187.791,347.618,186.32,336.906z
			 M305.4,420.744c-14.231,38.167-32.742,60.954-49.519,60.954c-16.777,0-35.288-22.787-49.519-60.954
			c-2.761-7.407-5.309-15.24-7.644-23.427c18.688-6.766,37.89-14.73,57.27-23.753c19.279,8.972,38.439,16.931,57.069,23.706
			C310.718,405.475,308.167,413.322,305.4,420.744z M320.17,367.976c-9.654-3.569-19.459-7.47-29.356-11.68
			c11.151-5.867,22.327-12.046,34.611-19.268C323.962,347.674,322.206,358.013,320.17,367.976z M329.266,299.697
			c-22.823,14.257-47.851,28.256-73.285,40.686c-25.301-12.354-50.121-26.205-73.497-40.851c-1.952-27.992-2.059-57.657,0.011-87.23
			c23.047-14.398,48.122-28.396,73.448-40.765c25.465,12.399,50.409,26.344,73.315,40.644
			C331.285,241.028,331.291,270.787,329.266,299.697z M395.062,122.704c52.879-9.815,78.347-1.356,84.549,9.832
			c7.652,13.804-5.104,42.534-37.648,77.524c-7.845,8.435-16.84,17.233-26.976,26.273c-17.408-14.075-36.585-27.97-57.101-41.363
			c-2.022-21.213-5.096-41.593-9.156-60.685C364.866,129.323,380.399,125.426,395.062,122.704z M360.328,232.671
			c11.207,7.811,21.661,15.585,31.336,23.253c-9.674,7.674-20.125,15.452-31.332,23.269
			C360.877,263.629,360.878,248.304,360.328,232.671z M405.682,420.779c-8.26,0-14.98-6.72-14.98-14.98s6.72-14.98,14.98-14.98
			c8.26,0,14.98,6.72,14.98,14.98S413.942,420.779,405.682,420.779z M479.798,379.46c-3.918,7.068-15.172,11.849-31.058,13.49
			c-5.542-18.537-22.743-32.092-43.059-32.092c-16.447,0-30.851,8.886-38.683,22.104c-5.98-1.591-12.074-3.349-18.264-5.266
			c4.068-19.127,7.144-39.545,9.166-60.8c20.517-13.403,39.694-27.307,57.097-41.391C467.308,322.117,489.304,362.31,479.798,379.46
			z"/>
	</g>
</g>
<g>
	<g>
		<path d="M255.881,211.059c-24.78,0-44.94,20.16-44.94,44.94s20.16,44.94,44.94,44.94c24.78,0,44.94-20.16,44.94-44.94
			S280.661,211.059,255.881,211.059z M255.881,270.979c-8.26,0-14.98-6.72-14.98-14.98s6.72-14.98,14.98-14.98
			c8.26,0,14.98,6.72,14.98,14.98S264.141,270.979,255.881,270.979z"/>
	</g>
</g>
<g>
</g>
<g>
</g>
<g>
</g>
<g>
</g>
<g>
</g>
<g>
</g>
<g>
</g>
<g>
</g>
<g>
</g>
<g>
</g>
<g>
</g>
<g>
</g>
<g>
</g>
<g>
</g>
<g>
</g>
</svg>
