<?xml version="1.0" encoding="iso-8859-1"?>
<!-- Generator: Adobe Illustrator 19.0.0, SVG Export Plug-In . SVG Version: 6.00 Build 0)  -->
<svg version="1.1" id="Capa_1" xmlns="http://www.w3.org/2000/svg" xmlns:xlink="http://www.w3.org/1999/xlink" x="0px" y="0px"
	 viewBox="0 0 512 512" style="enable-background:new 0 0 512 512;" xml:space="preserve">
<g>
	<g>
		<circle cx="165" cy="121" r="15"/>
	</g>
</g>
<g>
	<g>
		<circle cx="165" cy="241" r="15"/>
	</g>
</g>
<g>
	<g>
		<circle cx="105" cy="241" r="15"/>
	</g>
</g>
<g>
	<g>
		<circle cx="135" cy="181" r="15"/>
	</g>
</g>
<g>
	<g>
		<circle cx="195" cy="181" r="15"/>
	</g>
</g>
<g>
	<g>
		<circle cx="225" cy="241" r="15"/>
	</g>
</g>
<g>
	<g>
		<path d="M497,316h-92c-19.555,0-36.228,12.542-42.42,30h-38.818c4.062-14.311,6.238-29.406,6.238-45
			c0-2.194-0.516-4.571-1.584-6.708L221.833,81.125C211,59.459,189.223,46,165,46s-46,13.459-56.833,35.125L1.583,294.292
			C0.565,296.33,0,298.701,0,301c0,90.981,74.019,165,165,165c63.992,0,119.592-36.618,146.948-90h50.632
			c6.192,17.458,22.865,30,42.42,30h92c8.284,0,15-6.716,15-15v-60C512,322.716,505.284,316,497,316z M135,94.541
			C140.718,83.104,152.213,76,165,76s24.282,7.104,30,18.541L290.729,286H39.271L135,94.541z M165,436
			c-69.369,0-126.686-52.695-134.172-120.1h268.344C291.686,383.305,234.369,436,165,436z M482,376h-77c-8.271,0-15-6.729-15-15
			s6.729-15,15-15h77V376z"/>
	</g>
</g>
<g>
</g>
<g>
</g>
<g>
</g>
<g>
</g>
<g>
</g>
<g>
</g>
<g>
</g>
<g>
</g>
<g>
</g>
<g>
</g>
<g>
</g>
<g>
</g>
<g>
</g>
<g>
</g>
<g>
</g>
</svg>
