<?xml version="1.0" encoding="iso-8859-1"?>
<!-- Generator: Adobe Illustrator 19.0.0, SVG Export Plug-In . SVG Version: 6.00 Build 0)  -->
<svg version="1.1" id="Capa_1" xmlns="http://www.w3.org/2000/svg" xmlns:xlink="http://www.w3.org/1999/xlink" x="0px" y="0px"
	 viewBox="0 0 512 512" style="enable-background:new 0 0 512 512;" xml:space="preserve">
<g>
	<g>
		<path d="M497,0H15C6.716,0,0,6.716,0,15v482c0,8.284,6.716,15,15,15h482c8.284,0,15-6.716,15-15V15C512,6.716,505.284,0,497,0z
			 M271,30h90v61.747c-26.366-16.914-57.051-27.657-90-30.175V30z M151,30h90v31.571c-32.949,2.518-63.634,13.262-90,30.175V30z
			 M30,30h91v85.424c-1.896,1.821-3.755,3.68-5.576,5.576H30V30z M30,151h61.746c-16.914,26.366-27.657,57.051-30.175,90H30V151z
			 M30,271h31.571c2.518,32.949,13.262,63.634,30.175,90H30V271z M121,482H30v-91h85.424c1.821,1.896,3.68,3.755,5.576,5.576V482z
			 M241,482h-90v-61.747c26.366,16.914,57.051,27.657,90,30.175V482z M361,482h-90v-31.571c32.949-2.519,63.634-13.262,90-30.175
			V482z M256,421c-90.981,0-165-74.019-165-165S165.019,91,256,91s165,74.019,165,165S346.981,421,256,421z M482,482h-91v-85.424
			c1.896-1.821,3.755-3.68,5.576-5.576H482V482z M482,361h-61.746c16.914-26.366,27.657-57.051,30.175-90H482V361z M482,241h-31.571
			c-2.518-32.949-13.262-63.634-30.175-90H482V241z M482,121h-85.424c-1.821-1.896-3.68-3.755-5.576-5.576V30h91V121z"/>
	</g>
</g>
<g>
</g>
<g>
</g>
<g>
</g>
<g>
</g>
<g>
</g>
<g>
</g>
<g>
</g>
<g>
</g>
<g>
</g>
<g>
</g>
<g>
</g>
<g>
</g>
<g>
</g>
<g>
</g>
<g>
</g>
</svg>
