<?xml version="1.0" encoding="iso-8859-1"?>
<!-- Generator: Adobe Illustrator 19.0.0, SVG Export Plug-In . SVG Version: 6.00 Build 0)  -->
<svg version="1.1" id="Capa_1" xmlns="http://www.w3.org/2000/svg" xmlns:xlink="http://www.w3.org/1999/xlink" x="0px" y="0px"
	 viewBox="0 0 511.999 511.999" style="enable-background:new 0 0 511.999 511.999;" xml:space="preserve">
<g>
	<g>
		<path d="M166.005,362.007c-24.812,0-44.998,20.186-44.998,44.998s20.186,44.998,44.998,44.998s44.997-20.186,44.997-44.998
			S190.816,362.007,166.005,362.007z M166.005,422.004c-8.271,0-14.999-6.729-14.999-14.999c0-8.271,6.729-14.999,14.999-14.999
			c8.271,0,14.999,6.729,14.999,14.999C181.004,415.275,174.275,422.004,166.005,422.004z"/>
	</g>
</g>
<g>
	<g>
		<path d="M345.995,362.007c-24.812,0-44.997,20.186-44.997,44.998s20.185,44.998,44.997,44.998
			c24.812,0,44.998-20.186,44.998-44.998S370.806,362.007,345.995,362.007z M345.995,422.004c-8.271,0-14.999-6.729-14.999-14.999
			c0-8.271,6.728-14.999,14.999-14.999c8.271,0,14.999,6.729,14.999,14.999C360.994,415.275,354.265,422.004,345.995,422.004z"/>
	</g>
</g>
<g>
	<g>
		<path d="M345.995,302.011c-5.048,0-10.055,0.356-14.999,1.064v-78.146l23.32-23.32c35.259-35.258,40.772-90.972,13.109-132.474
			l-32.696-49.052c-13.805-20.774-41.759-26.29-62.409-12.5c-6.332,4.219-11.381,9.839-14.834,16.387
			c-3.379-6.411-8.354-12.087-14.794-16.378c-20.716-13.832-48.65-8.231-62.41,12.474l-32.708,49.07
			c-27.662,41.502-22.149,97.215,13.109,132.473l20.32,20.32v81.145c-4.943-0.707-9.951-1.063-14.998-1.063
			c-57.894,0-104.994,47.1-104.994,104.994c0,57.894,47.1,104.994,104.994,104.994c38.145,0,71.606-20.451,89.995-50.96
			c18.389,30.509,51.85,50.96,89.995,50.96c57.894,0,104.994-47.1,104.994-104.994C450.989,349.111,403.888,302.011,345.995,302.011
			z M241,407.005c0,41.353-33.643,74.996-74.996,74.996c-41.353,0-74.996-33.643-74.996-74.996
			c0-41.353,33.643-74.996,74.996-74.996c8.585,0,16.996,1.435,25,4.264c4.591,1.623,9.683,0.916,13.659-1.896
			s6.339-7.378,6.339-12.246V215.681c0-3.843-1.5-7.714-4.463-10.64l-24.645-24.644c-25.183-25.184-29.119-64.978-9.359-94.623
			l32.72-49.087c4.574-6.885,13.858-8.768,20.79-4.14c6.879,4.583,8.742,13.914,4.156,20.798l-32.707,49.069
			c-11.85,17.775-9.495,41.65,5.592,56.758L241,197.215V407.005z M224.322,137.987c-5.035-5.042-5.821-13.003-1.868-18.932
			l32.71-49.073c0.852-1.278,1.629-2.585,2.333-3.914c0.709,1.335,1.489,2.642,2.338,3.917l32.709,49.07
			c3.913,5.871,3.181,13.735-1.724,18.784l-34.464,32.29L224.322,137.987z M345.995,482c-41.353,0-74.996-33.643-74.996-74.996
			V197.517l40.547-37.989c0.121-0.114,0.241-0.229,0.358-0.348c15.096-15.118,17.452-38.992,5.603-56.767l-32.707-49.067
			c-4.583-6.877-2.764-16.19,4.168-20.808c6.864-4.586,16.167-2.791,20.789,4.166l32.708,49.069
			c19.76,29.645,15.823,69.44-9.359,94.623l-27.714,27.713c-2.813,2.813-4.394,6.628-4.394,10.605c0,6.688,0,96.731,0,103.414
			c0,4.869,2.363,9.435,6.339,12.246s9.068,3.518,13.658,1.896c8.006-2.829,16.416-4.264,25.001-4.264
			c41.353,0,74.996,33.643,74.996,74.996C420.991,448.357,387.347,482,345.995,482z"/>
	</g>
</g>
<g>
</g>
<g>
</g>
<g>
</g>
<g>
</g>
<g>
</g>
<g>
</g>
<g>
</g>
<g>
</g>
<g>
</g>
<g>
</g>
<g>
</g>
<g>
</g>
<g>
</g>
<g>
</g>
<g>
</g>
</svg>
