<?xml version="1.0" encoding="iso-8859-1"?>
<!-- Generator: Adobe Illustrator 19.0.0, SVG Export Plug-In . SVG Version: 6.00 Build 0)  -->
<svg version="1.1" id="Capa_1" xmlns="http://www.w3.org/2000/svg" xmlns:xlink="http://www.w3.org/1999/xlink" x="0px" y="0px"
	 viewBox="0 0 512 512" style="enable-background:new 0 0 512 512;" xml:space="preserve">
<g>
	<g>
		<circle cx="376" cy="256.001" r="15"/>
	</g>
</g>
<g>
	<g>
		<path d="M263.5,181.001c-30.482,0-57.703,11.955-71.905,30.691c-3.485-0.46-7.023-0.691-10.595-0.691c-33.645,0-60,19.767-60,45
			c0,25.233,26.355,45,60,45c13.812,0,26.917-3.452,37.395-9.681c13.339,6.286,28.997,9.681,45.105,9.681
			c46.262,0,82.5-26.355,82.5-60C346,207.355,309.762,181.001,263.5,181.001z M263.5,271.001c-14.373,0-27.958-3.572-38.256-10.059
			c-2.458-1.549-5.231-2.308-7.991-2.308c-3.647,0-7.271,1.328-10.109,3.915c-5.805,5.292-15.579,8.452-26.144,8.452
			c-18.313,0-30-8.884-30-15c0-6.116,11.687-15,30-15c4.762,0,9.394,0.646,13.767,1.919c7.25,2.11,14.934-1.493,17.947-8.413
			c5.086-11.681,24.164-23.506,50.786-23.506c30.939,0,52.5,15.811,52.5,30C316,255.189,294.439,271.001,263.5,271.001z"/>
	</g>
</g>
<g>
	<g>
		<path d="M256,31.001c-138.235,0-256,77.996-256,179.999v90c0,102.01,117.767,180,256,180c138.285,0,256-78.025,256-180v-90
			C512,108.969,394.198,31.001,256,31.001z M256,61.001c127.118,0,226,69.88,226,150c0,1.625-0.055,3.246-0.134,4.864
			C432.505,151.12,340.273,121.001,256,121.001c-93.007,0-180.417,35.28-225.866,94.863c-0.079-1.618-0.134-3.238-0.134-4.863
			C30,130.681,129.122,61.001,256,61.001z M471.514,255.925c-10.518,21.964-28.742,42.255-53.772,59.365
			C374.618,344.767,317.178,361.001,256,361.001S137.382,344.767,94.259,315.29c-25.029-17.109-43.252-37.399-53.771-59.361
			C69.941,193.959,157.738,151.001,256,151.001C355.659,151.001,442.395,194.915,471.514,255.925z M482,301.001L482,301.001
			c0,80.253-99.043,150-226,150c-126.771,0-226-69.584-226-150v-5.062c12.268,16.124,28.131,30.994,47.33,44.117
			c48.059,32.853,111.512,50.945,178.67,50.945s130.611-18.092,178.671-50.944c19.198-13.124,35.061-27.993,47.329-44.117V301.001z"
			/>
	</g>
</g>
<g>
</g>
<g>
</g>
<g>
</g>
<g>
</g>
<g>
</g>
<g>
</g>
<g>
</g>
<g>
</g>
<g>
</g>
<g>
</g>
<g>
</g>
<g>
</g>
<g>
</g>
<g>
</g>
<g>
</g>
</svg>
