<?xml version="1.0" encoding="iso-8859-1"?>
<!-- Generator: Adobe Illustrator 19.0.0, SVG Export Plug-In . SVG Version: 6.00 Build 0)  -->
<svg version="1.1" id="Capa_1" xmlns="http://www.w3.org/2000/svg" xmlns:xlink="http://www.w3.org/1999/xlink" x="0px" y="0px"
	 viewBox="0 0 512 512" style="enable-background:new 0 0 512 512;" xml:space="preserve">
<g>
	<g>
		<path d="M505.952,288.964L391,203.463V106c0-4.693-2.196-9.116-5.937-11.952l-120-91c-5.358-4.064-12.769-4.064-18.127,0l-120,91
			C123.197,96.884,121,101.307,121,106v97.463L6.048,288.964C2.243,291.795,0,296.258,0,301v105c0,4.714,2.216,9.155,5.984,11.988
			l121,91c2.67,2.009,5.843,3.012,9.016,3.012c3.192,0,6.385-1.017,9.063-3.048L256,424.825l110.937,84.127
			c2.679,2.032,5.871,3.048,9.063,3.048c3.173,0,6.346-1.004,9.016-3.012l121-91C509.783,415.155,512,410.714,512,406V301
			C512,296.258,509.758,291.795,505.952,288.964z M241,398.55l-105.038,79.653L30,398.512v-89.975l105.963-78.815L241,308.5V398.55z
			 M151,203.5v-90.05l105-79.625l105,79.625v90.05l-105,78.75L151,203.5z M482,398.512l-105.963,79.691L271,398.55V308.5
			l105.037-78.778L482,308.537V398.512z"/>
	</g>
</g>
<g>
</g>
<g>
</g>
<g>
</g>
<g>
</g>
<g>
</g>
<g>
</g>
<g>
</g>
<g>
</g>
<g>
</g>
<g>
</g>
<g>
</g>
<g>
</g>
<g>
</g>
<g>
</g>
<g>
</g>
</svg>
