<?xml version="1.0" encoding="iso-8859-1"?>
<!-- Generator: Adobe Illustrator 19.0.0, SVG Export Plug-In . SVG Version: 6.00 Build 0)  -->
<svg version="1.1" id="Capa_1" xmlns="http://www.w3.org/2000/svg" xmlns:xlink="http://www.w3.org/1999/xlink" x="0px" y="0px"
	 viewBox="0 0 512 512" style="enable-background:new 0 0 512 512;" xml:space="preserve">
<g>
	<g>
		<circle cx="271" cy="437" r="15"/>
	</g>
</g>
<g>
	<g>
		<circle cx="316" cy="407" r="15"/>
	</g>
</g>
<g>
	<g>
		<path d="M376,241h-68.532c4.228-11.524,8.604-23.41,11.842-32.134C356.652,216.198,391,187.68,391,150
			c0-10.817-2.907-21.096-8.051-29.999C388.184,110.945,391,100.625,391,90c0-38.426-35.937-67.355-73.867-58.366
			C303.528,12.51,281.204,0,256,0c-25.204,0-47.528,12.51-61.133,31.634C156.909,22.639,121,51.608,121,90
			c0,10.608,2.807,20.91,8.024,29.955c-13.149,22.796-10.282,52.64,9.55,72.471c14.679,14.679,34.991,20.195,54.117,16.44
			c3.238,8.724,7.613,20.61,11.842,32.134H136c-24.813,0-45,20.187-45,45c0,19.556,12.539,36.239,30,42.43V467
			c0,24.813,20.187,45,45,45h180c24.813,0,45-20.187,45-45V328.43c17.461-6.191,30-22.874,30-42.43C421,261.187,400.813,241,376,241
			z M202.213,171.213c-11.592,11.593-30.587,11.839-42.427,0c-11.326-11.327-11.637-29.263-1.346-41.005
			c0.194-0.208,0.37-0.426,0.549-0.642c3.887-4.19,8.996-7.286,14.88-8.718c8.05-1.958,12.987-10.071,11.029-18.121
			c-1.958-8.051-10.075-12.99-18.121-11.029c-5.284,1.286-10.25,3.249-14.829,5.771C151.328,95.049,151,92.543,151,90
			c0-16.937,14.157-30.795,31.502-29.962C181.519,64.875,181,69.877,181,75c0,8.284,6.716,15,15,15s15-6.716,15-15
			c0-24.406,19.866-45,45-45c25.067,0,45,20.524,45,45c0,8.284,6.716,15,15,15s15-6.716,15-15c0-5.123-0.519-10.125-1.502-14.962
			C346.877,59.204,361,73.097,361,90c0,2.548-0.33,5.059-0.953,7.484c-4.265-2.36-8.866-4.228-13.742-5.511
			c-8.014-2.11-16.216,2.677-18.324,10.688c-2.109,8.012,2.676,16.215,10.688,18.324C351.817,124.446,361,136.377,361,150
			c0,26.654-32.343,40.083-51.213,21.213c-5.857-5.858-15.355-5.858-21.213,0c-5.858,5.858-5.858,15.355,0,21.213
			c1.163,1.163,2.375,2.259,3.614,3.313c-4.415,11.829-11.111,30.063-16.674,45.26h-39.028
			c-5.563-15.197-12.259-33.433-16.673-45.261c1.239-1.054,2.451-2.15,3.614-3.313c5.858-5.858,5.858-15.355,0-21.213
			C217.569,165.355,208.071,165.355,202.213,171.213z M361,467c0,8.271-6.729,15-15,15H166c-8.271,0-15-6.729-15-15V355.534
			c9.334-3.884,26.15-9.534,45-9.534c28.575,0,52.487,12.986,52.687,13.097C249.923,359.787,279.379,376,316,376
			c17.36,0,33.103-3.644,45-7.55V467z M376,301c-8.284,0-15,6.716-15,15v20.466c-9.334,3.884-26.15,9.534-45,9.534
			c-28.575,0-52.487-12.986-52.687-13.097C262.077,332.213,232.621,316,196,316c-17.36,0-33.103,3.644-45,7.55V316
			c0-8.284-6.716-15-15-15c-8.271,0-15-6.729-15-15s6.729-15,15-15c2.541,0,237.812,0,240,0c8.271,0,15,6.729,15,15
			S384.271,301,376,301z"/>
	</g>
</g>
<g>
	<g>
		<path d="M497,30h-15V15c0-8.284-6.716-15-15-15s-15,6.716-15,15v15h-15c-8.284,0-15,6.716-15,15s6.716,15,15,15h15v15
			c0,8.284,6.716,15,15,15s15-6.716,15-15V60h15c8.284,0,15-6.716,15-15S505.284,30,497,30z"/>
	</g>
</g>
<g>
	<g>
		<path d="M75,180H60v-15c0-8.284-6.716-15-15-15s-15,6.716-15,15v15H15c-8.284,0-15,6.716-15,15s6.716,15,15,15h15v15
			c0,8.284,6.716,15,15,15s15-6.716,15-15v-15h15c8.284,0,15-6.716,15-15S83.284,180,75,180z"/>
	</g>
</g>
<g>
	<g>
		<path d="M45,0C20.187,0,0,20.187,0,45s20.187,45,45,45s45-20.187,45-45S69.813,0,45,0z M45,60c-8.271,0-15-6.729-15-15
			s6.729-15,15-15s15,6.729,15,15S53.271,60,45,60z"/>
	</g>
</g>
<g>
	<g>
		<path d="M467,150c-24.813,0-45,20.187-45,45s20.187,45,45,45s45-20.187,45-45S491.813,150,467,150z M467,210
			c-8.271,0-15-6.729-15-15s6.729-15,15-15s15,6.729,15,15S475.271,210,467,210z"/>
	</g>
</g>
<g>
	<g>
		<path d="M211,377c-16.542,0-30,13.458-30,30s13.458,30,30,30s30-13.458,30-30S227.542,377,211,377z"/>
	</g>
</g>
<g>
</g>
<g>
</g>
<g>
</g>
<g>
</g>
<g>
</g>
<g>
</g>
<g>
</g>
<g>
</g>
<g>
</g>
<g>
</g>
<g>
</g>
<g>
</g>
<g>
</g>
<g>
</g>
<g>
</g>
</svg>
