<?xml version="1.0" encoding="iso-8859-1"?>
<!-- Generator: Adobe Illustrator 19.0.0, SVG Export Plug-In . SVG Version: 6.00 Build 0)  -->
<svg version="1.1" id="Capa_1" xmlns="http://www.w3.org/2000/svg" xmlns:xlink="http://www.w3.org/1999/xlink" x="0px" y="0px"
	 viewBox="0 0 512.001 512.001" style="enable-background:new 0 0 512.001 512.001;" xml:space="preserve">
<g>
	<g>
		<circle cx="301" cy="226" r="15"/>
	</g>
</g>
<g>
	<g>
		<circle cx="241" cy="256" r="15"/>
	</g>
</g>
<g>
	<g>
		<path d="M391,301c-8.284,0-15,6.716-15,15v15h-30v-15c0-8.284-6.716-15-15-15h-5.729l41.459-82.918
			c6.065-12.128,9.271-25.708,9.271-39.27c0-38.218-24.581-71.399-60-83.154V30h15c8.284,0,15-6.716,15-15s-6.716-15-15-15
			c-7.147,0-172.851,0-180,0c-8.284,0-15,6.716-15,15s6.716,15,15,15h15v65.658c-35.419,11.755-60,44.936-60,83.154
			c0,4.419,0.346,8.84,1.015,13.212c0.057,0.508,0.136,1.013,0.244,1.51c1.454,8.518,4.151,16.828,8.011,24.547L156.73,301H151
			c-8.284,0-15,6.716-15,15v15h-15c-8.284,0-15,6.716-15,15s6.716,15,15,15h15v15c0,8.284,6.716,15,15,15h45v76
			c0,5.682,3.21,10.875,8.292,13.417l60,30c4.659,2.33,10.181,2.071,14.594-0.657c4.422-2.733,7.114-7.561,7.114-12.76V391h45
			c8.284,0,15-6.716,15-15v-15h30v15c0,8.284,6.716,15,15,15s15-6.716,15-15v-60C406,307.716,399.284,301,391,301z M136,178.812
			c0-27.965,20.032-51.833,47.632-56.754c7.156-1.275,12.368-7.499,12.368-14.767V30h90v77.291c0,7.269,5.211,13.492,12.368,14.767
			c27.6,4.92,47.632,28.789,47.632,56.754c0,1.238-0.05,2.475-0.13,3.711c-32.874-17.296-73.227-15.646-104.81,5.41
			c-19.921,13.282-45.086,15.901-67.315,7.009l-37.713-15.085C136.024,179.508,136,179.16,136,178.812z M148.311,217.08
			l14.291,5.716c31.31,12.523,66.871,8.916,95.098-9.902c23.826-15.883,54.697-16.161,78.701-1.237L291.73,301H190.271
			L148.311,217.08z M256,472.729l-30-15V391h30V472.729z M316,361c-14.953,0-135.297,0-150,0v-30c3.957,0,145.977,0,150,0V361z"/>
	</g>
</g>
<g>
</g>
<g>
</g>
<g>
</g>
<g>
</g>
<g>
</g>
<g>
</g>
<g>
</g>
<g>
</g>
<g>
</g>
<g>
</g>
<g>
</g>
<g>
</g>
<g>
</g>
<g>
</g>
<g>
</g>
</svg>
