<?xml version="1.0" encoding="iso-8859-1"?>
<!-- Generator: Adobe Illustrator 19.0.0, SVG Export Plug-In . SVG Version: 6.00 Build 0)  -->
<svg version="1.1" id="Capa_1" xmlns="http://www.w3.org/2000/svg" xmlns:xlink="http://www.w3.org/1999/xlink" x="0px" y="0px"
	 viewBox="0 0 512 512" style="enable-background:new 0 0 512 512;" xml:space="preserve">
<g>
	<g>
		<path d="M467,121h-75V75c0-24.813-20.187-45-45-45h-47.58C293.228,12.542,276.555,0,257,0H135c-19.555,0-36.228,12.542-42.42,30
			H45C20.187,30,0,50.187,0,75v362c0,24.813,20.187,45,45,45h302.041c13.697,18.204,35.475,30,59.959,30c41.355,0,75-33.645,75-75
			V208.43c17.461-6.191,30-22.874,30-42.43C512,141.187,491.813,121,467,121z M135,30h122c8.271,0,15,6.729,15,15s-6.729,15-15,15
			H135c-8.271,0-15-6.729-15-15S126.729,30,135,30z M45,452c-8.271,0-15-6.729-15-15V75c0-8.271,6.729-15,15-15h47.58
			c6.192,17.458,22.865,30,42.42,30h122c19.555,0,36.228-12.542,42.42-30H347c8.271,0,15,6.729,15,15v46h-15
			c-19.555,0-36.228,12.542-42.42,30H196c-8.284,0-15,6.716-15,15s6.716,15,15,15h108.579c4.527,12.766,14.655,22.903,27.421,27.43
			V437c0,5.136,0.521,10.152,1.509,15H45z M452,437c0,24.813-20.187,45-45,45s-45-20.187-45-45V302h90V437z M467,181
			c-8.284,0-15,6.716-15,15v76h-90v-76c0-8.284-6.716-15-15-15c-8.271,0-15-6.729-15-15s6.729-15,15-15h120c8.271,0,15,6.729,15,15
			S475.271,181,467,181z"/>
	</g>
</g>
<g>
	<g>
		<path d="M257,211h-61c-8.284,0-15,6.716-15,15s6.716,15,15,15h61c8.284,0,15-6.716,15-15S265.284,211,257,211z"/>
	</g>
</g>
<g>
	<g>
		<path d="M135,151H75c-8.284,0-15,6.716-15,15v60c0,8.284,6.716,15,15,15h60c8.284,0,15-6.716,15-15v-60
			C150,157.716,143.284,151,135,151z M120,211H90v-30h30V211z"/>
	</g>
</g>
<g>
	<g>
		<path d="M287,302h-91c-8.284,0-15,6.716-15,15s6.716,15,15,15h91c8.284,0,15-6.716,15-15S295.284,302,287,302z"/>
	</g>
</g>
<g>
	<g>
		<path d="M257,362h-61c-8.284,0-15,6.716-15,15s6.716,15,15,15h61c8.284,0,15-6.716,15-15S265.284,362,257,362z"/>
	</g>
</g>
<g>
	<g>
		<path d="M135,302H75c-8.284,0-15,6.716-15,15v60c0,8.284,6.716,15,15,15h60c8.284,0,15-6.716,15-15v-60
			C150,308.716,143.284,302,135,302z M120,362H90v-30h30V362z"/>
	</g>
</g>
<g>
	<g>
		<circle cx="407" cy="347" r="15"/>
	</g>
</g>
<g>
	<g>
		<circle cx="437" cy="75" r="15"/>
	</g>
</g>
<g>
	<g>
		<circle cx="467" cy="45" r="15"/>
	</g>
</g>
<g>
	<g>
		<path d="M407,392c-16.542,0-30,13.458-30,30s13.458,30,30,30s30-13.458,30-30S423.542,392,407,392z"/>
	</g>
</g>
<g>
</g>
<g>
</g>
<g>
</g>
<g>
</g>
<g>
</g>
<g>
</g>
<g>
</g>
<g>
</g>
<g>
</g>
<g>
</g>
<g>
</g>
<g>
</g>
<g>
</g>
<g>
</g>
<g>
</g>
</svg>
