<?xml version="1.0" encoding="iso-8859-1"?>
<!-- Generator: Adobe Illustrator 19.0.0, SVG Export Plug-In . SVG Version: 6.00 Build 0)  -->
<svg version="1.1" id="Capa_1" xmlns="http://www.w3.org/2000/svg" xmlns:xlink="http://www.w3.org/1999/xlink" x="0px" y="0px"
	 viewBox="0 0 512 512" style="enable-background:new 0 0 512 512;" xml:space="preserve">
<g>
	<g>
		<circle cx="347" cy="286" r="15"/>
	</g>
</g>
<g>
	<g>
		<circle cx="347" cy="346" r="15"/>
	</g>
</g>
<g>
	<g>
		<circle cx="407" cy="286" r="15"/>
	</g>
</g>
<g>
	<g>
		<circle cx="407" cy="346" r="15"/>
	</g>
</g>
<g>
	<g>
		<path d="M347,181h-30v-30h60c57.897,0,105-47.103,105-105c0-8.284-6.716-15-15-15H45c-8.284,0-15,6.716-15,15
			c0,57.897,47.103,105,105,105h61v30h-31C74.019,181,0,255.019,0,346c0,8.529,0,77.68,0,90c0,24.813,20.187,45,45,45h422
			c24.813,0,45-20.187,45-45c0-11.31,0-80.756,0-90C512,255.019,437.981,181,347,181z M135,121c-36.219,0-66.524-25.909-73.493-60.1
			h388.986C443.524,95.091,413.219,121,377,121C373.74,121,138.329,121,135,121z M287,151v30h-61v-30H287z M482,436
			c0,8.271-6.729,15-15,15H45c-8.271,0-15-6.729-15-15v-15h452V436z M482,391H30v-45c0-74.439,60.561-135,135-135
			c8.506,0,176.237,0,182,0c74.439,0,135,60.561,135,135V391z"/>
	</g>
</g>
<g>
	<g>
		<path d="M287,271H105c-8.284,0-15,6.716-15,15v60c0,8.284,6.716,15,15,15h182c8.284,0,15-6.716,15-15v-60
			C302,277.716,295.284,271,287,271z M272,331H120v-30h152V331z"/>
	</g>
</g>
<g>
</g>
<g>
</g>
<g>
</g>
<g>
</g>
<g>
</g>
<g>
</g>
<g>
</g>
<g>
</g>
<g>
</g>
<g>
</g>
<g>
</g>
<g>
</g>
<g>
</g>
<g>
</g>
<g>
</g>
</svg>
