<?xml version="1.0" encoding="iso-8859-1"?>
<!-- Generator: Adobe Illustrator 19.0.0, SVG Export Plug-In . SVG Version: 6.00 Build 0)  -->
<svg version="1.1" id="Capa_1" xmlns="http://www.w3.org/2000/svg" xmlns:xlink="http://www.w3.org/1999/xlink" x="0px" y="0px"
	 viewBox="0 0 512 512" style="enable-background:new 0 0 512 512;" xml:space="preserve">
<g>
	<g>
		<path d="M497,242c-61.68,0-120.374-29.16-157.006-78.003l-17.999-23.998c-14.864-19.826-43.118-23.865-62.992-8.998
			c-19.907,14.914-23.927,43.103-8.998,63.002L286.004,242H147.42c1.665-4.695,2.58-9.742,2.58-15c0-7.944-2.32-15.68-4.477-19.449
			l-27.508-48.008C115.342,154.877,110.376,152,105,152s-10.342,2.877-13.015,7.542L64.477,207.55C62.392,211.198,60,218.883,60,227
			c0,11.517,4.354,22.032,11.495,30C64.354,264.968,60,275.483,60,287c0,5.257,0.906,10.307,2.57,15H45c-24.813,0-45,20.187-45,45
			s20.187,44.9,45,44.9h17.57C60.906,396.593,60,401.743,60,407c0,24.813,20.187,44.9,45,44.9h17.57
			c-1.664,4.693-2.57,9.843-2.57,15.1c0,24.813,20.187,45,45,45h332c8.284,0,15-6.716,15-15V257C512,248.716,505.284,242,497,242z
			 M90.984,221.633L105,197.172l14.017,24.462C119.67,223.337,120,225.139,120,227c0,8.271-6.729,15-15,15s-15-6.729-15-15
			C90,225.14,90.331,223.338,90.984,221.633z M421,482H165c-8.271,0-15-6.729-15-15s6.729-15,15-15h91c8.284,0,15-6.716,15-15
			s-6.716-15-15-15c-7.097,0-144.944,0-151,0c-8.271,0-15-6.729-15-15s6.729-15,15-15h151c8.284,0,15-6.716,15-15s-6.716-15-15-15
			c-8.025,0-194.246,0-211,0c-8.271,0-15-6.729-15-15s6.729-15,15-15c16.993,0,203.166,0,211,0c8.284,0,15-6.716,15-15
			s-6.716-15-15-15H105c-8.271,0-15-6.729-15-15s6.729-15,15-15h211.004c5.682,0,10.875-3.21,13.417-8.292
			c2.541-5.082,1.992-11.163-1.417-15.708l-54-71.999c-4.989-6.649-3.623-16.04,2.978-20.984c6.633-4.962,16.058-3.626,21.012,2.98
			l18,24c26.709,35.612,63.563,62.142,105.006,76.857V482z M482,482h-31V267.26c10.177,2.112,20.532,3.542,31,4.24V482z"/>
	</g>
</g>
<g>
	<g>
		<path d="M85.651,57.779L58.143,7.771C55.506,2.978,50.47,0,45,0c-5.47,0-10.506,2.978-13.143,7.771L4.349,57.779
			C2.373,61.38,0,68.863,0,77c0,24.813,20.187,45,45,45s45-20.187,45-45C90,68.915,87.645,61.408,85.651,57.779z M45,92
			c-8.271,0-15-6.729-15-15c0-1.897,0.344-3.734,1.023-5.468L45,46.123l13.977,25.41C59.656,73.266,60,75.103,60,77
			C60,85.271,53.271,92,45,92z"/>
	</g>
</g>
<g>
	<g>
		<path d="M205.523,87.551l-27.508-48.008C175.342,34.877,170.376,32,165,32c-5.376,0-10.342,2.877-13.015,7.542L124.477,87.55
			C122.392,91.198,120,98.883,120,107c0,24.813,20.187,45,45,45s45-20.187,45-45C210,99.056,207.68,91.32,205.523,87.551z M165,122
			c-8.271,0-15-6.729-15-15c0-1.86,0.331-3.662,0.984-5.367L165,77.172l14.017,24.462c0.652,1.703,0.983,3.505,0.983,5.366
			C180,115.271,173.271,122,165,122z"/>
	</g>
</g>
<g>
</g>
<g>
</g>
<g>
</g>
<g>
</g>
<g>
</g>
<g>
</g>
<g>
</g>
<g>
</g>
<g>
</g>
<g>
</g>
<g>
</g>
<g>
</g>
<g>
</g>
<g>
</g>
<g>
</g>
</svg>
