<?xml version="1.0" encoding="iso-8859-1"?>
<!-- Generator: Adobe Illustrator 19.0.0, SVG Export Plug-In . SVG Version: 6.00 Build 0)  -->
<svg version="1.1" id="Capa_1" xmlns="http://www.w3.org/2000/svg" xmlns:xlink="http://www.w3.org/1999/xlink" x="0px" y="0px"
	 viewBox="0 0 512 512" style="enable-background:new 0 0 512 512;" xml:space="preserve">
<g>
	<g>
		<path d="M450.271,332.754c-8.744-8.743-18.661-15.613-29.246-20.622v-53.021c0-25.134-12.485-48.462-33.397-62.404
			c-38.996-25.997-43.263-27.502-49.829-38.061c-0.012-0.017-0.023-0.035-0.034-0.052c-4.345-7.009-6.74-15.183-6.74-23.705V120h15
			c8.284,0,15-6.716,15-15V45c0-24.813-20.187-45-45-45h-180c-24.813,0-45,20.187-45,45v60c0,8.284,6.716,15,15,15h15v14.889
			c0,8.522-2.395,16.696-6.74,23.705c-0.012,0.017-0.023,0.035-0.034,0.052c-6.481,10.423-10.275,11.692-49.829,38.061
			c-20.913,13.942-33.397,37.27-33.397,62.404V437c0,41.355,33.645,75,75,75h270c26.63,0,53.729-10.237,74.246-30.754
			C491.21,440.307,491.21,373.693,450.271,332.754z M121.025,45c0-8.271,6.729-15,15-15h180c8.271,0,15,6.729,15,15v45
			c-10.856,0-19.144,0-30,0V75c0-8.284-6.716-15-15-15s-15,6.716-15,15v15h-30V75c0-8.284-6.716-15-15-15s-15,6.716-15,15v15h-30V75
			c0-8.284-6.716-15-15-15s-15,6.716-15,15v15c-10.856,0-19.144,0-30,0V45z M303,152H149.05c1.294-5.544,1.975-11.278,1.975-17.111
			V120h150v14.889C301.025,140.722,301.706,146.456,303,152z M106.025,482c-24.813,0-45-20.187-45-45V259.111
			c0-15.08,7.491-29.077,20.038-37.442c39.28-26.187,44.258-28.44,53.333-39.669h183.258c9.077,11.232,14.063,13.489,53.333,39.669
			c12.547,8.365,20.038,22.362,20.038,37.442v44.007c-9.945-1.424-20.055-1.424-30,0V257c0-8.284-6.716-15-15-15h-240
			c-8.284,0-15,6.716-15,15v180c0,8.284,6.716,15,15,15h175.132c5.009,10.585,11.878,20.502,20.622,29.246
			c0.255,0.255,0.516,0.502,0.773,0.754H106.025z M272.143,422H121.025V272h210v40.132c-10.584,5.008-20.5,11.877-29.243,20.618
			c-0.001,0.001-0.002,0.002-0.003,0.003s-0.002,0.002-0.003,0.003C277.491,357.043,267.615,390.364,272.143,422z M322.992,460.033
			c-25.61-25.611-28.789-65.288-9.539-94.393l103.932,103.932C388.279,488.822,348.602,485.644,322.992,460.033z M438.597,448.36
			L334.666,344.427c29.118-19.258,68.788-16.063,94.392,9.54C454.668,379.578,457.847,419.255,438.597,448.36z"/>
	</g>
</g>
<g>
</g>
<g>
</g>
<g>
</g>
<g>
</g>
<g>
</g>
<g>
</g>
<g>
</g>
<g>
</g>
<g>
</g>
<g>
</g>
<g>
</g>
<g>
</g>
<g>
</g>
<g>
</g>
<g>
</g>
</svg>
