<?xml version="1.0" encoding="iso-8859-1"?>
<!-- Generator: Adobe Illustrator 19.0.0, SVG Export Plug-In . SVG Version: 6.00 Build 0)  -->
<svg version="1.1" id="Capa_1" xmlns="http://www.w3.org/2000/svg" xmlns:xlink="http://www.w3.org/1999/xlink" x="0px" y="0px"
	 viewBox="0 0 512.002 512.002" style="enable-background:new 0 0 512.002 512.002;" xml:space="preserve">
<g>
	<g>
		<path d="M436.001,120h-120c-8.284,0-15,6.716-15,15v182c0,24.81-20.182,44.995-44.99,45c-0.003,0-0.006,0-0.01,0
			c-0.004,0-0.006,0-0.01,0c-24.809-0.005-44.99-20.19-44.99-45V135c0-8.284-6.716-15-15-15h-120c-8.284,0-15,6.716-15,15v182h0
			c0,107.513,87.459,194.982,194.968,195c0.011,0,0.021,0.002,0.032,0.002c0.011,0,0.021-0.002,0.032-0.002
			c107.509-0.018,194.968-87.487,194.968-195V135C451.001,126.716,444.285,120,436.001,120z M181.001,150v61h-90c0,0,0-61,0-61
			H181.001z M241.001,481.311c-83.977-7.604-150-78.386-150-164.311c0,0,0-76,0-76h90v76c0,36.219,25.808,66.522,60,73.491V481.311z
			 M421.001,317c0,85.925-66.023,156.707-150,164.311v-90.82c34.192-6.968,60-37.271,60-73.491v-76h90V317z M421.001,211h-90v-61h90
			V211z"/>
	</g>
</g>
<g>
	<g>
		<path d="M376.001,0c-8.284,0-15,6.716-15,15v30c0,8.284,6.716,15,15,15s15-6.716,15-15V15C391.001,6.716,384.285,0,376.001,0z"/>
	</g>
</g>
<g>
	<g>
		<path d="M356.607,64.394l-30-30c-5.857-5.857-15.355-5.857-21.213,0c-5.858,5.858-5.858,15.355,0,21.213l30,30
			c5.858,5.858,15.355,5.858,21.213,0C362.465,79.749,362.465,70.252,356.607,64.394z"/>
	</g>
</g>
<g>
	<g>
		<path d="M446.607,34.394c-5.857-5.857-15.355-5.857-21.213,0l-30,30c-5.858,5.858-5.858,15.355,0,21.213
			c5.858,5.858,15.355,5.857,21.213,0l30-30C452.465,49.749,452.465,40.252,446.607,34.394z"/>
	</g>
</g>
<g>
	<g>
		<path d="M136.001,0c-8.284,0-15,6.716-15,15v30c0,8.284,6.716,15,15,15s15-6.716,15-15V15C151.001,6.716,144.285,0,136.001,0z"/>
	</g>
</g>
<g>
	<g>
		<path d="M116.607,64.394l-30-30c-5.857-5.857-15.355-5.857-21.213,0c-5.858,5.858-5.858,15.355,0,21.213l30,30
			c5.858,5.858,15.355,5.858,21.213,0C122.465,79.749,122.465,70.252,116.607,64.394z"/>
	</g>
</g>
<g>
	<g>
		<path d="M206.607,34.394c-5.857-5.857-15.355-5.857-21.213,0l-30,30c-5.858,5.858-5.858,15.355,0,21.213
			c5.858,5.858,15.355,5.857,21.213,0l30-30C212.465,49.749,212.465,40.252,206.607,34.394z"/>
	</g>
</g>
<g>
</g>
<g>
</g>
<g>
</g>
<g>
</g>
<g>
</g>
<g>
</g>
<g>
</g>
<g>
</g>
<g>
</g>
<g>
</g>
<g>
</g>
<g>
</g>
<g>
</g>
<g>
</g>
<g>
</g>
</svg>
