<?xml version="1.0" encoding="iso-8859-1"?>
<!-- Generator: Adobe Illustrator 19.0.0, SVG Export Plug-In . SVG Version: 6.00 Build 0)  -->
<svg version="1.1" id="Capa_1" xmlns="http://www.w3.org/2000/svg" xmlns:xlink="http://www.w3.org/1999/xlink" x="0px" y="0px"
	 viewBox="0 0 512.001 512.001" style="enable-background:new 0 0 512.001 512.001;" xml:space="preserve">
<g>
	<g>
		<path d="M459.251,492.716l-48.238-162.007c22.453-2.51,39.969-21.6,39.969-44.712c0-24.813-20.187-45-45-45h-12.543
			c-12.794-29.091-34.917-53.858-62.456-69.862l-0.001-83.716c17.459-6.192,30-22.865,30-42.42c0-24.813-20.187-45-45-45H195.984
			c-24.813,0-45,20.187-45,45c0,19.555,12.541,36.228,30,42.42v83.715c-27.539,16.006-49.662,40.773-62.457,69.863h-12.543
			c-24.813,0-45,20.187-45,45c0,23.113,17.518,42.203,39.972,44.712L52.75,492.718c-2.363,7.94,2.158,16.292,10.099,18.655
			c7.939,2.363,16.292-2.159,18.655-10.099L121.4,367.193c22.694,45.996,67.657,77.833,119.583,83.044v46.759
			c0,8.284,6.716,15,15,15c8.284,0,15-6.716,15-15v-46.759c31.618-3.173,61.477-16.318,85.334-37.822
			c14.332-12.918,25.898-28.294,34.254-45.234l39.927,134.095c2.364,7.94,10.716,12.46,18.657,10.096
			C457.094,509.009,461.614,500.656,459.251,492.716z M195.984,30h119.999c8.271,0,15,6.729,15,15s-6.729,15-15,15H195.984
			c-8.271,0-15-6.729-15-15S187.713,30,195.984,30z M202.672,193.506c5.092-2.537,8.311-7.737,8.311-13.426V89.999h89.999
			l0.001,90.082c0,5.689,3.219,10.889,8.311,13.426c21.085,10.504,38.747,27.264,50.535,47.491H152.136
			C163.925,220.77,181.587,204.011,202.672,193.506z M240.983,420.063c-48.875-6.084-89.05-41.521-101.225-89.065h101.225V420.063z
			 M270.983,420.063v-89.165h101.225C360.033,378.442,319.858,413.978,270.983,420.063z M105.984,300.998c-8.271,0-15-6.729-15-15
			s6.729-15,15-15c10.59,0,289.392,0,299.998,0c8.271,0,15,6.729,15,15s-6.729,15-15,15
			C391.63,300.998,120.101,300.998,105.984,300.998z"/>
	</g>
</g>
<g>
</g>
<g>
</g>
<g>
</g>
<g>
</g>
<g>
</g>
<g>
</g>
<g>
</g>
<g>
</g>
<g>
</g>
<g>
</g>
<g>
</g>
<g>
</g>
<g>
</g>
<g>
</g>
<g>
</g>
</svg>
