<?xml version="1.0" encoding="iso-8859-1"?>
<!-- Generator: Adobe Illustrator 19.0.0, SVG Export Plug-In . SVG Version: 6.00 Build 0)  -->
<svg version="1.1" id="Capa_1" xmlns="http://www.w3.org/2000/svg" xmlns:xlink="http://www.w3.org/1999/xlink" x="0px" y="0px"
	 viewBox="0 0 512 512" style="enable-background:new 0 0 512 512;" xml:space="preserve">
<g>
	<g>
		<path d="M256,0C115.03,0,0,115.049,0,256c0,140.97,115.049,256,256,256c140.97,0,256-115.049,256-256C512,115.03,396.95,0,256,0z
			 M256,482C131.383,482,30,380.617,30,256S131.383,30,256,30s226,101.383,226,226S380.617,482,256,482z"/>
	</g>
</g>
<g>
	<g>
		<path d="M256,211c-24.813,0-45,20.187-45,45s20.187,45,45,45s45-20.187,45-45S280.813,211,256,211z M256,271
			c-8.271,0-15-6.729-15-15s6.729-15,15-15s15,6.729,15,15S264.271,271,256,271z"/>
	</g>
</g>
<g>
	<g>
		<path d="M384.364,109.312C348.803,78.158,303.216,61,256,61s-92.803,17.158-128.364,48.312c-6.229,5.457-6.857,14.928-1.404,21.16
			l59.24,67.703c5.451,6.23,14.94,6.865,21.173,1.405C220.321,187.599,237.849,181,256,181s35.679,6.599,49.355,18.58
			c6.232,5.461,15.716,4.831,21.173-1.405l59.24-67.703C391.221,124.24,390.592,114.769,384.364,109.312z M313.126,167.934
			C296.201,156.937,276.383,151,256,151s-40.201,5.937-57.126,16.934l-39.746-45.423C187.202,102.1,221.077,91,256,91
			c34.923,0,68.798,11.1,96.871,31.511L313.126,167.934z"/>
	</g>
</g>
<g>
	<g>
		<path d="M436,241h-90.001c-8.284,0-15,6.716-15,15c0,31.057-19.562,59.282-48.678,70.235c-7.748,2.915-11.67,11.555-8.763,19.306
			l31.603,84.274c2.927,7.803,11.616,11.674,19.326,8.772C398.621,410.7,451,339.263,451,256C451,247.716,444.284,241,436,241z
			 M327.735,404.575l-21.208-56.554c28.733-15.864,48.633-44.578,53.379-77.021h60.401
			C414.999,328.318,379.593,379.405,327.735,404.575z"/>
	</g>
</g>
<g>
	<g>
		<path d="M229.679,326.235C200.562,315.282,181,287.056,181,256c0-8.284-6.716-15-15-15H76c-8.284,0-15,6.716-15,15
			c0,83.291,52.386,154.703,126.513,182.588c7.738,2.913,16.41-0.995,19.326-8.772l31.603-84.274
			C241.349,337.79,237.426,329.15,229.679,326.235z M184.265,404.575C132.407,379.405,97,328.318,91.693,271h60.399
			c4.746,32.442,24.646,61.157,53.38,77.021L184.265,404.575z"/>
	</g>
</g>
<g>
</g>
<g>
</g>
<g>
</g>
<g>
</g>
<g>
</g>
<g>
</g>
<g>
</g>
<g>
</g>
<g>
</g>
<g>
</g>
<g>
</g>
<g>
</g>
<g>
</g>
<g>
</g>
<g>
</g>
</svg>
