<?xml version="1.0" encoding="iso-8859-1"?>
<!-- Generator: Adobe Illustrator 19.0.0, SVG Export Plug-In . SVG Version: 6.00 Build 0)  -->
<svg version="1.1" id="Capa_1" xmlns="http://www.w3.org/2000/svg" xmlns:xlink="http://www.w3.org/1999/xlink" x="0px" y="0px"
	 viewBox="0 0 512.003 512.003" style="enable-background:new 0 0 512.003 512.003;" xml:space="preserve">
<g>
	<g>
		<path d="M450.644,156.783c-6.002-53.932-34.243-103.004-78.122-135.373c-5.614-4.141-13.34-3.865-18.645,0.663
			c-5.304,4.529-6.787,12.118-3.577,18.311c7.763,14.978,11.7,31.174,11.7,48.139c0,17.182-4.188,33.414-11.606,47.745
			c-26.502-20.982-59.987-32.745-94.394-32.745c-34.449,0-67.028,11.513-93.502,32.748C155.149,121.938,151,105.706,151,88.523
			c0-16.591,3.766-32.448,11.193-47.148c2.97-4.836,3.026-11.125-0.25-16.097c-1.367-2.097-3.277-3.879-5.658-5.113
			c-5.648-2.927-12.298-1.913-16.807,2.046C96.17,54.598,68.313,103.31,62.357,156.778C22.653,194.134,0,245.459,0,298.523
			c0,9.263,0.657,18.576,1.952,27.681c1.034,7.269,7.178,12.721,14.518,12.884c7.366,0.14,13.72-5.012,15.075-12.228
			c6.93-36.89,37.69-65.761,74.469-72.047c0.513,61.386,37.878,113.76,91.119,136.655c-15.958,25.25-44.118,42.055-76.132,42.055
			c-9.175,0-18.225-1.38-26.896-4.102c-7-2.197-14.562,0.991-17.875,7.537c-3.313,6.545-1.407,14.527,4.508,18.868
			c33.604,24.662,73.462,37.698,115.264,37.698c20.521,0,40.679-3.167,60-9.419c19.321,6.252,39.479,9.419,60,9.419
			c41.85,0,83.139-13.388,116.264-37.698c5.915-4.34,7.821-12.322,4.508-18.868c-3.313-6.545-10.876-9.734-17.875-7.537
			c-8.672,2.722-17.721,4.102-26.896,4.102c-32.381,0-60.861-16.817-76.994-42.08c54.565-23.312,91.464-77.106,91.98-136.654
			c36.635,6.172,66.426,34.579,73.469,72.071c1.355,7.216,7.706,12.371,15.075,12.228c7.34-0.163,13.483-5.615,14.518-12.884
			c1.295-9.105,1.952-18.418,1.952-27.681C512,244.946,489.712,193.63,450.644,156.783z M256,133.523
			c28.153,0,55.5,9.783,76.908,27.182c-19.331,20.199-46.659,32.818-76.908,32.818c-29.918,0-56.952-12.579-76.095-32.724
			C201.319,143.128,227.881,133.523,256,133.523z M286,253.523c0,16.542-13.458,30-30,30s-30-13.458-30-30s13.458-30,30-30
			S286,236.981,286,253.523z M43.541,251.508c-3.002,2.485-5.874,5.104-8.602,7.84c8.125-31.889,26.02-61.346,51.751-84.17
			c2.897-2.57,4.688-6.161,4.998-10.021c2.377-29.6,12.675-57.653,29.4-81.472c-0.059,1.612-0.088,3.224-0.088,4.837
			c0,58.418,37.261,107.999,88.739,126.833c-7.88,9.534-12.866,21.538-13.628,34.656C151.601,214.189,87.976,214.731,43.541,251.508
			z M136.026,254.784C178.524,261.958,211,299.017,211,343.523c0,6.97-0.797,13.757-2.303,20.276
			C165.642,345.229,136.534,302.363,136.026,254.784z M357.141,458.427c-13.374,3.355-27.217,5.096-41.141,5.096
			c-18.881,0-37.384-3.161-54.995-9.395c-1.619-0.573-3.313-0.86-5.005-0.86s-3.386,0.287-5.005,0.86
			c-17.611,6.234-36.114,9.395-54.995,9.395c-13.872,0-27.487-1.695-40.631-5.014C205.07,443.629,241,397.438,241,343.523
			c0-11.566-1.65-22.754-4.718-33.345c6.18,2.157,12.812,3.345,19.718,3.345c6.928,0,13.579-1.194,19.776-3.364
			c-3.143,10.717-4.776,21.922-4.776,33.364C271,398.161,308.2,443.729,357.141,458.427z M303.331,363.809
			c-1.525-6.522-2.331-13.313-2.331-20.286c0-44.564,32.922-81.661,75.974-88.766C376.469,302.24,346.962,345.139,303.331,363.809z
			 M315.922,250.439c-0.674-13.254-5.671-25.386-13.603-35.013C353.061,197.043,392,148.096,392,88.523
			c0-1.633-0.03-3.265-0.09-4.896c16.723,23.826,27.023,51.899,29.402,81.53c0.31,3.86,2.101,7.451,4.998,10.021
			c25.267,22.412,42.84,51.735,50.827,83.78C434.005,215.59,364.446,211.198,315.922,250.439z"/>
	</g>
</g>
<g>
</g>
<g>
</g>
<g>
</g>
<g>
</g>
<g>
</g>
<g>
</g>
<g>
</g>
<g>
</g>
<g>
</g>
<g>
</g>
<g>
</g>
<g>
</g>
<g>
</g>
<g>
</g>
<g>
</g>
</svg>
