<?xml version="1.0" encoding="iso-8859-1"?>
<!-- Generator: Adobe Illustrator 19.0.0, SVG Export Plug-In . SVG Version: 6.00 Build 0)  -->
<svg version="1.1" id="Capa_1" xmlns="http://www.w3.org/2000/svg" xmlns:xlink="http://www.w3.org/1999/xlink" x="0px" y="0px"
	 viewBox="0 0 512 512" style="enable-background:new 0 0 512 512;" xml:space="preserve">
<g>
	<g>
		<path d="M498.841,98.021c-13.828-13.828-34.488-16.75-51.213-8.783l-24.846-24.846c2.864-5.984,4.379-12.579,4.379-19.409
			c0-12.022-4.681-23.323-13.181-31.823c-17.546-17.547-46.099-17.546-63.644,0l-12.779,12.778
			c-22.87,22.87-37.634,52.066-42.487,83.479c-49.514-2.773-98.764,15.342-135.405,51.983
			c-36.646,36.646-54.762,85.898-51.986,135.406c-31.411,4.852-60.606,19.617-83.477,42.486L13.16,350.336
			c-17.546,17.546-17.546,46.098,0,63.644c14.003,14.003,34.699,16.714,51.231,8.802l24.846,24.846
			c-7.968,16.724-5.045,37.384,8.783,51.212c17.545,17.546,46.097,17.547,63.645,0l11.041-11.042
			c23.287-23.287,37.741-52.591,42.511-83.493c3.224,0.176,6.454,0.266,9.684,0.266c48.303,0,92.937-19.474,125.698-52.235
			c35.23-35.229,54.782-83.888,51.966-135.378c30.9-4.769,60.207-19.225,83.497-42.514l12.779-12.779
			C516.387,144.118,516.387,115.567,498.841,98.021z M403.373,87.413l21.215,21.215l-2.172,2.172
			c-10.702,10.702-24.558,16.763-38.921,17.692c0.913-14.523,7.055-28.256,17.706-38.908L403.373,87.413z M358.771,47.154
			l12.779-12.779c5.849-5.847,15.366-5.848,21.215,0c5.849,5.849,5.849,15.366,0,21.215l-12.778,12.779
			c-15.022,15.021-24.059,34.169-26.161,54.56c-9.53-3.965-19.244-7.062-29.047-9.306C328.723,88.633,340.53,65.395,358.771,47.154z
			 M55.589,392.765c-5.862,5.862-15.352,5.862-21.215,0c-5.861-5.862-5.862-15.352,0-21.215l11.042-11.042
			c18.243-18.243,41.48-30.05,66.471-33.996c2.246,9.804,5.343,19.518,9.312,29.045c-20.393,2.1-39.543,11.139-54.568,26.165
			L55.589,392.765z M108.626,424.588l-21.215-21.215l0.434-0.435c10.654-10.653,24.386-16.793,38.905-17.705
			c-0.931,14.366-6.991,28.222-17.69,38.921L108.626,424.588z M200.187,265.569l46.339,46.339
			c-14.732,3.772-30.408,3.617-45.655-0.751C196.558,296.036,196.427,280.343,200.187,265.569z M296.676,277.198
			c-2.876,4.034-6.112,7.884-9.722,11.493c-3.609,3.609-7.459,6.847-11.493,9.722l-61.854-61.854
			c2.87-4.049,6.097-7.909,9.702-11.513s7.463-6.833,11.514-9.702L296.676,277.198z M263.833,201.926
			c14.771-3.759,30.461-3.629,45.58,0.677c4.375,15.246,4.533,30.925,0.759,45.663L263.833,201.926z M329.384,331.12
			c-28.21,28.21-65.235,43.498-104.009,43.496c-2.857,0-5.727-0.106-8.603-0.273c-0.487-10.201-2-20.42-4.609-30.508
			c4.247,0.465,8.514,0.702,12.783,0.702c31.673,0,61.391-12.799,83.223-34.631c25.239-25.238,37.84-60.371,33.928-96.009
			c10.096,2.612,20.323,4.127,30.53,4.614C375.064,260.373,359.674,300.83,329.384,331.12z M477.624,140.45l-12.779,12.779
			c-35.099,35.099-87.257,45.147-132.881,25.595c-44.471-19.051-95.539-9.325-129.871,25.008
			c-34.021,34.021-44.251,84.962-25.008,129.849c19.549,45.638,9.502,97.805-25.595,132.902l-11.041,11.042
			c-5.849,5.849-15.366,5.848-21.215,0c-5.848-5.849-5.848-15.366,0-21.215l11.041-11.042c26.37-26.37,33.923-65.567,19.237-99.866
			c-23.976-55.918-11.664-119.856,31.367-162.886c28.434-28.434,66.001-43.454,104.356-43.454c49.318,0,58.248,19.496,94.423,19.493
			c23.508-0.001,46.543-9.21,63.972-26.64l12.779-12.779c5.849-5.848,15.366-5.849,21.215,0
			C483.473,125.085,483.473,134.602,477.624,140.45z"/>
	</g>
</g>
<g>
</g>
<g>
</g>
<g>
</g>
<g>
</g>
<g>
</g>
<g>
</g>
<g>
</g>
<g>
</g>
<g>
</g>
<g>
</g>
<g>
</g>
<g>
</g>
<g>
</g>
<g>
</g>
<g>
</g>
</svg>
