<?xml version="1.0" encoding="iso-8859-1"?>
<!-- Generator: Adobe Illustrator 19.0.0, SVG Export Plug-In . SVG Version: 6.00 Build 0)  -->
<svg version="1.1" id="Capa_1" xmlns="http://www.w3.org/2000/svg" xmlns:xlink="http://www.w3.org/1999/xlink" x="0px" y="0px"
	 viewBox="0 0 512 512" style="enable-background:new 0 0 512 512;" xml:space="preserve">
<g>
	<g>
		<path d="M499.056,254.921C490.474,245.944,479.089,241,467,241H270V45c0-24.813-20.187-45-45-45H45C20.187,0,0,20.187,0,45v211
			v211c0,24.813,20.187,45,45,45c17.657,0,402.815,0,422,0c24.813,0,45-20.187,45-45V287
			C512,275.045,507.403,263.653,499.056,254.921z M240,482H45c-8.271,0-15-6.729-15-15V271h210V482z M240,241H30V45
			c0-8.271,6.729-15,15-15h180c8.271,0,15,6.729,15,15V241z M482,467c0,8.271-6.729,15-15,15H270V271h197c7.991,0,15,7.477,15,16
			V467z"/>
	</g>
</g>
<g>
	<g>
		<path d="M165,362c-24.813,0-45,20.187-45,45c0,8.271-6.729,15-15,15s-15-6.729-15-15v-60c0-8.271,6.729-15,15-15s15,6.729,15,15
			c0,8.284,6.716,15,15,15s15-6.716,15-15c0-24.813-20.187-45-45-45s-45,20.187-45,45v60c0,24.813,20.187,45,45,45
			c11.517,0,22.032-4.354,30-11.495c7.968,7.142,18.483,11.495,30,11.495c24.813,0,45-20.187,45-45S189.813,362,165,362z M165,422
			c-8.271,0-15-6.729-15-15s6.729-15,15-15s15,6.729,15,15S173.271,422,165,422z"/>
	</g>
</g>
<g>
	<g>
		<path d="M421,302c-8.284,0-15,6.716-15,15v75l-63-84c-3.874-5.166-10.618-7.272-16.744-5.23C320.131,304.812,316,310.543,316,317
			v120c0,8.284,6.716,15,15,15s15-6.716,15-15v-75l63,84c3.873,5.163,10.615,7.272,16.744,5.23C431.869,449.188,436,443.457,436,437
			V317C436,308.716,429.284,302,421,302z"/>
	</g>
</g>
<g>
	<g>
		<path d="M165,181h-15V90h15c8.284,0,15-6.716,15-15s-6.716-15-15-15h-60c-8.284,0-15,6.716-15,15s6.716,15,15,15h15v91h-15
			c-8.284,0-15,6.716-15,15s6.716,15,15,15h60c8.284,0,15-6.716,15-15S173.284,181,165,181z"/>
	</g>
</g>
<g>
</g>
<g>
</g>
<g>
</g>
<g>
</g>
<g>
</g>
<g>
</g>
<g>
</g>
<g>
</g>
<g>
</g>
<g>
</g>
<g>
</g>
<g>
</g>
<g>
</g>
<g>
</g>
<g>
</g>
</svg>
