<?xml version="1.0" encoding="iso-8859-1"?>
<!-- Generator: Adobe Illustrator 19.0.0, SVG Export Plug-In . SVG Version: 6.00 Build 0)  -->
<svg version="1.1" id="Capa_1" xmlns="http://www.w3.org/2000/svg" xmlns:xlink="http://www.w3.org/1999/xlink" x="0px" y="0px"
	 viewBox="0 0 512 512" style="enable-background:new 0 0 512 512;" xml:space="preserve">
<g>
	<g>
		<path d="M437,422h-15v-32.58c17.459-6.192,30-22.865,30-42.42s-12.541-36.228-30-42.42v-97.16c17.459-6.192,30-22.865,30-42.42
			s-12.541-36.228-30-42.42V15c0-8.284-6.716-15-15-15s-15,6.716-15,15v107.58c-12.764,4.527-22.893,14.656-27.42,27.42h-33.667
			C323.543,99.183,279.308,60,226,60h-15V45c0-24.813-20.187-45-45-45s-45,20.187-45,45v15h-15C47.551,60,0,107.103,0,165v52.917
			c0,39.947,8.202,81.592,23.095,117.263C29.898,351.473,46.093,362,64.354,362h75.663l-13.004,22.519
			C123.079,391.332,121,399.105,121,407c0,5.258,0.915,10.305,2.58,15H106c-24.813,0-45,20.187-45,45s20.187,45,45,45h120
			c11.955,0,23.347-4.597,32.079-12.944C267.056,490.474,272,479.089,272,467s-4.944-23.474-13.921-32.056
			C249.347,426.597,237.955,422,226,422h-17.58c1.665-4.695,2.58-9.742,2.58-15c0-7.894-2.079-15.667-6.013-22.482L191.984,362
			c5.238,0,167.606,0,172.596,0c4.527,12.764,14.656,22.893,27.42,27.42V422h-15c-41.355,0-75,33.645-75,75c0,8.284,6.716,15,15,15
			h180c8.284,0,15-6.716,15-15C512,455.645,478.355,422,437,422z M407,362c-8.271,0-15-6.729-15-15c0-8.27,6.726-14.997,14.995-15
			c0.002,0,0.003,0,0.005,0s0.003,0,0.005,0c8.269,0.003,14.995,6.73,14.995,15C422,355.271,415.271,362,407,362z M407,150
			c8.271,0,15,6.729,15,15c0,8.263-6.716,14.985-14.976,14.999c-0.008,0-0.016-0.001-0.024-0.001s-0.016,0.001-0.024,0.001
			C398.716,179.985,392,173.263,392,165C392,156.729,398.729,150,407,150z M151,45c0-8.271,6.729-15,15-15s15,6.729,15,15v15h-30V45
			z M106,90c12.802,0,107.206,0,120,0c36.702,0,67.411,25.809,74.473,60c-11.81,0-257.141,0-268.946,0
			C38.589,115.809,69.298,90,106,90z M226,452c8.523,0,16,7.009,16,15c0,7.991-7.477,15-16,15H106c-8.271,0-15-6.729-15-15
			s6.729-15,15-15H226z M151,407c0-2.673,0.67-5.19,1.993-7.48L166,376.995l13.007,22.523C180.33,401.81,181,404.327,181,407
			c0,8.271-6.729,15-15,15S151,415.271,151,407z M302,217.917c0,36.071-7.379,73.61-20.779,105.703
			c-2.093,5.012-7.548,8.379-13.575,8.379c-8.926,0-194.368,0-203.293,0c-6.027,0-11.482-3.367-13.575-8.379
			C37.379,291.528,30,253.988,30,217.917V180c11.935,0,260.065,0,272,0V217.917z M364.58,332h-54.398
			C324.254,297.044,332,256.69,332,217.917V180h32.58c4.527,12.764,14.656,22.893,27.42,27.42v97.16
			C379.236,309.107,369.107,319.236,364.58,332z M334.57,482c6.191-17.461,22.874-30,42.43-30h60c19.556,0,36.239,12.539,42.43,30
			H334.57z"/>
	</g>
</g>
<g>
</g>
<g>
</g>
<g>
</g>
<g>
</g>
<g>
</g>
<g>
</g>
<g>
</g>
<g>
</g>
<g>
</g>
<g>
</g>
<g>
</g>
<g>
</g>
<g>
</g>
<g>
</g>
<g>
</g>
</svg>
