<?xml version="1.0" encoding="iso-8859-1"?>
<!-- Generator: Adobe Illustrator 19.0.0, SVG Export Plug-In . SVG Version: 6.00 Build 0)  -->
<svg version="1.1" id="Capa_1" xmlns="http://www.w3.org/2000/svg" xmlns:xlink="http://www.w3.org/1999/xlink" x="0px" y="0px"
	 viewBox="0 0 512 512" style="enable-background:new 0 0 512 512;" xml:space="preserve">
<g>
	<g>
		<circle cx="241" cy="287" r="15"/>
	</g>
</g>
<g>
	<g>
		<circle cx="361" cy="287" r="15"/>
	</g>
</g>
<g>
	<g>
		<path d="M181,362c-24.813,0-45,20.187-45,45s20.187,45,45,45s45-20.187,45-45S205.813,362,181,362z M181,422
			c-8.271,0-15-6.729-15-15s6.729-15,15-15s15,6.729,15,15S189.271,422,181,422z"/>
	</g>
</g>
<g>
	<g>
		<path d="M491.605,198.821l-42.426-42.426c-5.858-5.858-15.355-5.858-21.213,0l-31.82,31.82l-10.607-10.606
			c-5.857-5.858-15.355-5.858-21.213,0l-45.754,45.753L316,220.787V87.43c17.461-6.191,30-22.874,30-42.43c0-24.813-20.187-45-45-45
			H181c-24.813,0-45,20.187-45,45c0,19.556,12.539,36.239,30,42.43v133.357L45.246,341.541C26.387,360.401,16,385.476,16,412.147
			C16,467.206,60.794,512,115.853,512h250.294C421.206,512,466,467.206,466,412.147c0-26.671-10.387-51.747-29.247-70.606
			l-12.114-12.114l45.753-45.754c5.858-5.857,5.858-15.355,0-21.213l-10.607-10.606l31.82-31.82
			C497.463,214.176,497.463,204.679,491.605,198.821z M181,30h120c8.271,0,15,6.729,15,15s-6.729,15-15,15c-8.284,0-15,6.716-15,15
			v77h-90V75c0-8.284-6.716-15-15-15c-8.271,0-15-6.729-15-15S172.729,30,181,30z M392.82,318.82
			c-5.858,5.858-5.858,15.355,0,21.213l22.721,22.721C428.734,375.947,436,393.489,436,412.147C436,450.664,404.664,482,366.147,482
			H115.853C77.336,482,46,450.664,46,412.147c0-18.658,7.266-36.2,20.459-49.394l125.147-125.147
			C194.419,234.793,196,230.978,196,227v-45h90v45c0,3.978,1.581,7.793,4.394,10.606l17.574,17.574
			c5.857,5.858,15.355,5.858,21.213,0l45.754-45.753l63.639,63.639L392.82,318.82z M438.574,230.639l-21.213-21.213l21.213-21.213
			l21.213,21.213L438.574,230.639z"/>
	</g>
</g>
<g>
	<g>
		<path d="M451,0c-24.813,0-45,20.187-45,45s20.187,45,45,45s45-20.187,45-45S475.813,0,451,0z M451,60c-8.271,0-15-6.729-15-15
			s6.729-15,15-15s15,6.729,15,15S459.271,60,451,60z"/>
	</g>
</g>
<g>
	<g>
		<circle cx="301" cy="407" r="15"/>
	</g>
</g>
<g>
	<g>
		<circle cx="481" cy="137" r="15"/>
	</g>
</g>
<g>
</g>
<g>
</g>
<g>
</g>
<g>
</g>
<g>
</g>
<g>
</g>
<g>
</g>
<g>
</g>
<g>
</g>
<g>
</g>
<g>
</g>
<g>
</g>
<g>
</g>
<g>
</g>
<g>
</g>
</svg>
