<?xml version="1.0" encoding="iso-8859-1"?>
<!-- Generator: Adobe Illustrator 19.0.0, SVG Export Plug-In . SVG Version: 6.00 Build 0)  -->
<svg version="1.1" id="Capa_1" xmlns="http://www.w3.org/2000/svg" xmlns:xlink="http://www.w3.org/1999/xlink" x="0px" y="0px"
	 viewBox="0 0 512 512" style="enable-background:new 0 0 512 512;" xml:space="preserve">
<g>
	<g>
		<path d="M453.941,97.63l5.64-8.46C480.303,85.151,496,66.878,496,45c0-24.813-20.187-45-45-45H61C36.187,0,16,20.187,16,45
			c0,21.878,15.697,40.151,36.418,44.169L157.43,246.687c-8.671,5.354-15.393,13.566-18.85,23.313H106v-15c0-8.284-6.716-15-15-15
			s-15,6.716-15,15v60c0,8.284,6.716,15,15,15s15-6.716,15-15v-15h32.58c6.192,17.458,22.865,30,42.42,30h15v167
			c0,4.822,2.318,9.349,6.229,12.168c3.86,2.783,8.88,3.606,13.514,2.062l90-30C311.869,479.188,316,473.457,316,467V330h15
			c24.813,0,45-20.187,45-45c0-16.176-8.583-30.38-21.43-38.313l4.458-6.687H421c41.355,0,75-33.645,75-75
			C496,136.308,479.68,110.235,453.941,97.63z M46,45c0-8.271,6.729-15,15-15h390c8.271,0,15,6.729,15,15s-6.729,15-15,15H61
			C52.729,60,46,53.271,46,45z M286,456.188l-60,20V330h60V456.188z M331,300c-6.078,0-143.708,0-150,0c-8.271,0-15-6.729-15-15
			s6.729-15,15-15h150c8.271,0,15,6.729,15,15S339.271,300,331,300z M322.972,240H189.028l-100-150h333.944
			C419.744,94.843,329.29,230.524,322.972,240z M421,210h-41.972l58.042-87.063C454.265,129.428,466,145.894,466,165
			C466,189.813,445.813,210,421,210z"/>
	</g>
</g>
<g>
</g>
<g>
</g>
<g>
</g>
<g>
</g>
<g>
</g>
<g>
</g>
<g>
</g>
<g>
</g>
<g>
</g>
<g>
</g>
<g>
</g>
<g>
</g>
<g>
</g>
<g>
</g>
<g>
</g>
</svg>
