<?xml version="1.0" encoding="iso-8859-1"?>
<!-- Generator: Adobe Illustrator 19.0.0, SVG Export Plug-In . SVG Version: 6.00 Build 0)  -->
<svg version="1.1" id="Capa_1" xmlns="http://www.w3.org/2000/svg" xmlns:xlink="http://www.w3.org/1999/xlink" x="0px" y="0px"
	 viewBox="0 0 512 512" style="enable-background:new 0 0 512 512;" xml:space="preserve">
<g>
	<g>
		<path d="M437,30H329.404C310.458,11.454,284.544,0,256,0s-54.458,11.454-73.404,30H75C33.645,30,0,63.645,0,105v332
			c0,41.355,33.645,75,75,75h362c41.355,0,75-33.645,75-75V105C512,63.645,478.355,30,437,30z M241,482H75
			c-24.813,0-45-20.187-45-45V105c0-24.813,20.187-45,45-45h86.145c-5.63,11.82-9.111,24.85-9.943,38.585l-55.808,55.808
			c-5.858,5.858-5.858,15.355,0,21.213L144.787,225l-19.393,19.393c-3.41,3.409-4.972,8.25-4.2,13.01
			c0.772,4.759,3.785,8.857,8.098,11.014L241,324.271V482z M176.606,214.393L127.213,165l33.727-33.727l65.142,151.998
			l-64.759-32.38l15.284-15.284C182.464,229.749,182.464,220.251,176.606,214.393z M181.057,102.054C182.61,62.06,215.632,30,256,30
			s73.39,32.06,74.943,72.054L256,276.921L181.057,102.054z M335.394,235.607l15.284,15.284l-64.759,32.38l65.142-151.998
			L384.787,165l-49.393,49.393C329.536,220.251,329.536,229.749,335.394,235.607z M482,437c0,24.813-20.187,45-45,45H271V324.271
			l111.708-55.854c4.313-2.156,7.326-6.254,8.098-11.014c0.772-4.76-0.79-9.6-4.2-13.01L367.213,225l49.393-49.393
			c5.858-5.858,5.858-15.355,0-21.213l-55.808-55.808C359.966,84.85,356.485,71.82,350.855,60H437c24.813,0,45,20.187,45,45V437z"/>
	</g>
</g>
<g>
	<g>
		<path d="M437,392h-91c-8.284,0-15,6.716-15,15s6.716,15,15,15h91c8.284,0,15-6.716,15-15S445.284,392,437,392z"/>
	</g>
</g>
<g>
	<g>
		<path d="M196,362h-45v-15c0-8.284-6.716-15-15-15s-15,6.716-15,15v15H75c-8.284,0-15,6.716-15,15v60c0,8.284,6.716,15,15,15h121
			c8.284,0,15-6.716,15-15v-60C211,368.716,204.284,362,196,362z M181,422H90v-30h91V422z"/>
	</g>
</g>
<g>
</g>
<g>
</g>
<g>
</g>
<g>
</g>
<g>
</g>
<g>
</g>
<g>
</g>
<g>
</g>
<g>
</g>
<g>
</g>
<g>
</g>
<g>
</g>
<g>
</g>
<g>
</g>
<g>
</g>
</svg>
