<?xml version="1.0" encoding="iso-8859-1"?>
<!-- Generator: Adobe Illustrator 19.0.0, SVG Export Plug-In . SVG Version: 6.00 Build 0)  -->
<svg version="1.1" id="Capa_1" xmlns="http://www.w3.org/2000/svg" xmlns:xlink="http://www.w3.org/1999/xlink" x="0px" y="0px"
	 viewBox="0 0 512 512" style="enable-background:new 0 0 512 512;" xml:space="preserve">
<g>
	<g>
		<path d="M490.015,64.385l-42.426-42.427c-29.242-29.242-76.825-29.242-106.067,0l-195.13,195.13
			c-27.103,27.102-45.401,61.294-52.932,98.952c-6.352,31.756-21.813,60.646-44.713,83.548l-35.587,35.586
			c-17.545,17.546-17.545,46.094,0,63.64c17.545,17.544,46.093,17.546,63.639,0l35.586-35.586c22.9-22.9,51.79-38.361,83.623-44.728
			c37.583-7.517,71.775-25.815,98.877-52.917c6.156-6.156,183.409-183.409,195.131-195.131
			C519.326,141.142,519.33,93.698,490.015,64.385z M190.049,389.097c-37.584,7.517-71.776,25.816-98.877,52.917L55.586,477.6
			c-5.849,5.849-15.365,5.848-21.213,0c-5.848-5.848-5.848-15.365,0-21.213l35.586-35.586c27.102-27.102,45.4-61.293,52.932-98.952
			c3.75-18.747,10.698-36.482,20.453-52.589l99.368,99.368C226.597,378.387,208.842,385.339,190.049,389.097z M267.081,350.57
			L161.403,244.893c4.789-5.345-7.725,7.336,169.512-169.902l106.067,106.067C260.233,357.808,272.427,345.78,267.081,350.57z
			 M468.802,149.238l-10.607,10.607L352.129,53.778l10.606-10.606c17.547-17.547,46.095-17.545,63.641,0l42.426,42.427
			C486.389,103.184,486.391,131.65,468.802,149.238z"/>
	</g>
</g>
<g>
	<g>
		<path d="M383.949,170.451l-42.426-42.426c-5.857-5.858-15.355-5.858-21.213,0l-63.641,63.641c-5.858,5.858-5.858,15.355,0,21.213
			l42.426,42.426c5.857,5.857,15.355,5.858,21.213,0l63.64-63.641C389.807,185.806,389.807,176.309,383.949,170.451z
			 M309.702,223.485l-21.213-21.213l42.426-42.427l21.213,21.213L309.702,223.485z"/>
	</g>
</g>
<g>
	<g>
		<path d="M277.882,276.518l-42.426-42.426c-5.858-5.858-15.356-5.858-21.213,0c-5.858,5.858-5.858,15.355,0,21.213l42.426,42.426
			c5.859,5.859,15.357,5.856,21.213,0C283.74,291.873,283.74,282.376,277.882,276.518z"/>
	</g>
</g>
<g>
</g>
<g>
</g>
<g>
</g>
<g>
</g>
<g>
</g>
<g>
</g>
<g>
</g>
<g>
</g>
<g>
</g>
<g>
</g>
<g>
</g>
<g>
</g>
<g>
</g>
<g>
</g>
<g>
</g>
</svg>
